<mxfile host="app.diagrams.net" modified="2023-09-28T13:13:43.761Z" agent="Mozilla/5.0 (Macintosh; Intel Mac OS X 10_15_7) AppleWebKit/537.36 (KHTML, like Gecko) Chrome/116.0.0.0 Safari/537.36" etag="NUwKMkm53ED_H_oH_LDk" version="21.7.4" type="github" pages="11">
  <diagram id="oiWLMyW6f8d4BN8w3hJY" name="General Features">
    <mxGraphModel dx="1242" dy="742" grid="1" gridSize="10" guides="1" tooltips="1" connect="1" arrows="1" fold="1" page="1" pageScale="1" pageWidth="850" pageHeight="1100" math="0" shadow="0">
      <root>
        <mxCell id="0" />
        <mxCell id="1" parent="0" />
        <mxCell id="Q_Gd5MtNg49Rrlb43MES-1" value="&lt;font style=&quot;font-size: 15px;&quot; face=&quot;Times New Roman&quot;&gt;CONNEXUS&lt;/font&gt;" style="ellipse;whiteSpace=wrap;html=1;" parent="1" vertex="1">
          <mxGeometry x="365" y="280" width="120" height="80" as="geometry" />
        </mxCell>
        <mxCell id="Q_Gd5MtNg49Rrlb43MES-2" value="&lt;font style=&quot;font-size: 15px;&quot; face=&quot;Times New Roman&quot;&gt;COMMUNITY&lt;/font&gt;" style="ellipse;whiteSpace=wrap;html=1;" parent="1" vertex="1">
          <mxGeometry x="210" y="170" width="120" height="80" as="geometry" />
        </mxCell>
        <mxCell id="Q_Gd5MtNg49Rrlb43MES-3" value="&lt;font style=&quot;font-size: 15px;&quot; face=&quot;Times New Roman&quot;&gt;EVENTS&lt;/font&gt;" style="ellipse;whiteSpace=wrap;html=1;" parent="1" vertex="1">
          <mxGeometry x="160" y="330" width="120" height="80" as="geometry" />
        </mxCell>
        <mxCell id="Q_Gd5MtNg49Rrlb43MES-4" value="&lt;font face=&quot;Times New Roman&quot;&gt;&lt;span style=&quot;font-size: 15px;&quot;&gt;ANALYTICS&lt;/span&gt;&lt;/font&gt;" style="ellipse;whiteSpace=wrap;html=1;" parent="1" vertex="1">
          <mxGeometry x="365" y="420" width="120" height="80" as="geometry" />
        </mxCell>
        <mxCell id="Q_Gd5MtNg49Rrlb43MES-5" value="&lt;font face=&quot;Times New Roman&quot;&gt;&lt;span style=&quot;font-size: 15px;&quot;&gt;SCHEDULE&lt;/span&gt;&lt;/font&gt;" style="ellipse;whiteSpace=wrap;html=1;" parent="1" vertex="1">
          <mxGeometry x="520" y="170" width="120" height="80" as="geometry" />
        </mxCell>
        <mxCell id="Q_Gd5MtNg49Rrlb43MES-6" value="&lt;font face=&quot;Times New Roman&quot;&gt;&lt;span style=&quot;font-size: 15px;&quot;&gt;PRAYER FEED&lt;br&gt;&lt;/span&gt;&lt;/font&gt;" style="ellipse;whiteSpace=wrap;html=1;" parent="1" vertex="1">
          <mxGeometry x="560" y="330" width="120" height="80" as="geometry" />
        </mxCell>
        <mxCell id="Q_Gd5MtNg49Rrlb43MES-8" value="" style="endArrow=classic;html=1;rounded=0;exitX=0.058;exitY=0.713;exitDx=0;exitDy=0;entryX=1;entryY=0.5;entryDx=0;entryDy=0;exitPerimeter=0;" parent="1" source="Q_Gd5MtNg49Rrlb43MES-1" target="Q_Gd5MtNg49Rrlb43MES-3" edge="1">
          <mxGeometry width="50" height="50" relative="1" as="geometry">
            <mxPoint x="400" y="430" as="sourcePoint" />
            <mxPoint x="450" y="380" as="targetPoint" />
          </mxGeometry>
        </mxCell>
        <mxCell id="Q_Gd5MtNg49Rrlb43MES-9" value="" style="endArrow=classic;html=1;rounded=0;exitX=0;exitY=0;exitDx=0;exitDy=0;entryX=1;entryY=1;entryDx=0;entryDy=0;" parent="1" source="Q_Gd5MtNg49Rrlb43MES-1" target="Q_Gd5MtNg49Rrlb43MES-2" edge="1">
          <mxGeometry width="50" height="50" relative="1" as="geometry">
            <mxPoint x="382" y="347" as="sourcePoint" />
            <mxPoint x="280" y="370" as="targetPoint" />
          </mxGeometry>
        </mxCell>
        <mxCell id="Q_Gd5MtNg49Rrlb43MES-10" value="" style="endArrow=classic;html=1;rounded=0;exitX=1;exitY=0;exitDx=0;exitDy=0;entryX=0;entryY=1;entryDx=0;entryDy=0;" parent="1" source="Q_Gd5MtNg49Rrlb43MES-1" target="Q_Gd5MtNg49Rrlb43MES-5" edge="1">
          <mxGeometry width="50" height="50" relative="1" as="geometry">
            <mxPoint x="393" y="302" as="sourcePoint" />
            <mxPoint x="332" y="248" as="targetPoint" />
          </mxGeometry>
        </mxCell>
        <mxCell id="Q_Gd5MtNg49Rrlb43MES-11" value="" style="endArrow=classic;html=1;rounded=0;exitX=0.933;exitY=0.713;exitDx=0;exitDy=0;entryX=0;entryY=0.5;entryDx=0;entryDy=0;exitPerimeter=0;" parent="1" source="Q_Gd5MtNg49Rrlb43MES-1" target="Q_Gd5MtNg49Rrlb43MES-6" edge="1">
          <mxGeometry width="50" height="50" relative="1" as="geometry">
            <mxPoint x="382" y="347" as="sourcePoint" />
            <mxPoint x="290" y="380" as="targetPoint" />
          </mxGeometry>
        </mxCell>
        <mxCell id="Q_Gd5MtNg49Rrlb43MES-12" value="" style="endArrow=classic;html=1;rounded=0;exitX=0.5;exitY=1;exitDx=0;exitDy=0;entryX=0.5;entryY=0;entryDx=0;entryDy=0;" parent="1" source="Q_Gd5MtNg49Rrlb43MES-1" target="Q_Gd5MtNg49Rrlb43MES-4" edge="1">
          <mxGeometry width="50" height="50" relative="1" as="geometry">
            <mxPoint x="382" y="347" as="sourcePoint" />
            <mxPoint x="290" y="380" as="targetPoint" />
          </mxGeometry>
        </mxCell>
      </root>
    </mxGraphModel>
  </diagram>
  <diagram name="Decomposition" id="dWg-lK4ktiXP6sA1lKUr">
    <mxGraphModel dx="2092" dy="742" grid="1" gridSize="10" guides="1" tooltips="1" connect="1" arrows="1" fold="1" page="1" pageScale="1" pageWidth="850" pageHeight="1100" math="0" shadow="0">
      <root>
        <mxCell id="0" />
        <mxCell id="1" parent="0" />
        <mxCell id="9FZ4AC-YBpyKF_zebIb_-1" value="ConnexUs" style="rounded=0;whiteSpace=wrap;html=1;fontFamily=Times New Roman;fontSize=28;" parent="1" vertex="1">
          <mxGeometry x="285" y="50" width="150" height="60" as="geometry" />
        </mxCell>
        <mxCell id="9FZ4AC-YBpyKF_zebIb_-2" value="User Account" style="rounded=0;whiteSpace=wrap;html=1;fontFamily=Times New Roman;fontSize=28;" parent="1" vertex="1">
          <mxGeometry x="200" y="400" width="120" height="60" as="geometry" />
        </mxCell>
        <mxCell id="9FZ4AC-YBpyKF_zebIb_-3" value="Community Pages" style="rounded=0;whiteSpace=wrap;html=1;fontFamily=Times New Roman;fontSize=28;" parent="1" vertex="1">
          <mxGeometry x="225" y="580" width="145" height="60" as="geometry" />
        </mxCell>
        <mxCell id="9FZ4AC-YBpyKF_zebIb_-4" value="Authorizer" style="rounded=0;whiteSpace=wrap;html=1;fontFamily=Times New Roman;fontSize=28;" parent="1" vertex="1">
          <mxGeometry x="870" y="400" width="120" height="60" as="geometry" />
        </mxCell>
        <mxCell id="9FZ4AC-YBpyKF_zebIb_-5" value="Registration" style="rounded=0;whiteSpace=wrap;html=1;fontFamily=Times New Roman;fontSize=28;" parent="1" vertex="1">
          <mxGeometry x="285" y="130" width="150" height="60" as="geometry" />
        </mxCell>
        <mxCell id="kj3o1h7G9YnmJoLtUgAj-3" value="Sign-up" style="rounded=0;whiteSpace=wrap;html=1;fontFamily=Times New Roman;fontSize=28;" parent="1" vertex="1">
          <mxGeometry x="345" y="210" width="150" height="60" as="geometry" />
        </mxCell>
        <mxCell id="kj3o1h7G9YnmJoLtUgAj-4" value="Login" style="rounded=0;whiteSpace=wrap;html=1;fontFamily=Times New Roman;fontSize=28;" parent="1" vertex="1">
          <mxGeometry x="345" y="290" width="150" height="60" as="geometry" />
        </mxCell>
        <mxCell id="kj3o1h7G9YnmJoLtUgAj-10" value="Event Engagement" style="rounded=0;whiteSpace=wrap;html=1;fontFamily=Times New Roman;fontSize=28;" parent="1" vertex="1">
          <mxGeometry x="225" y="660" width="145" height="60" as="geometry" />
        </mxCell>
        <mxCell id="kj3o1h7G9YnmJoLtUgAj-11" value="Community Engagement" style="rounded=0;whiteSpace=wrap;html=1;fontFamily=Times New Roman;fontSize=28;" parent="1" vertex="1">
          <mxGeometry x="140" y="500" width="180" height="60" as="geometry" />
        </mxCell>
        <mxCell id="kj3o1h7G9YnmJoLtUgAj-12" value="Event Management" style="rounded=0;whiteSpace=wrap;html=1;fontFamily=Times New Roman;fontSize=28;" parent="1" vertex="1">
          <mxGeometry x="-160" y="680" width="150" height="60" as="geometry" />
        </mxCell>
        <mxCell id="kj3o1h7G9YnmJoLtUgAj-13" value="Calendar" style="rounded=0;whiteSpace=wrap;html=1;fontFamily=Times New Roman;fontSize=28;" parent="1" vertex="1">
          <mxGeometry x="330" y="500" width="120" height="60" as="geometry" />
        </mxCell>
        <mxCell id="kj3o1h7G9YnmJoLtUgAj-14" value="Event Creation" style="rounded=0;whiteSpace=wrap;html=1;fontFamily=Times New Roman;fontSize=28;" parent="1" vertex="1">
          <mxGeometry x="-130" y="760" width="130" height="60" as="geometry" />
        </mxCell>
        <mxCell id="kj3o1h7G9YnmJoLtUgAj-15" value="Event Attendance" style="rounded=0;whiteSpace=wrap;html=1;fontFamily=Times New Roman;fontSize=28;" parent="1" vertex="1">
          <mxGeometry x="-130" y="840" width="130" height="60" as="geometry" />
        </mxCell>
        <mxCell id="kj3o1h7G9YnmJoLtUgAj-16" value="Membership Management" style="rounded=0;whiteSpace=wrap;html=1;fontFamily=Times New Roman;fontSize=28;" parent="1" vertex="1">
          <mxGeometry x="-363" y="680" width="160" height="60" as="geometry" />
        </mxCell>
        <mxCell id="kj3o1h7G9YnmJoLtUgAj-17" value="Member Categorization" style="rounded=0;whiteSpace=wrap;html=1;fontFamily=Times New Roman;fontSize=28;" parent="1" vertex="1">
          <mxGeometry x="-323" y="840" width="173" height="60" as="geometry" />
        </mxCell>
        <mxCell id="kj3o1h7G9YnmJoLtUgAj-18" value="Membership Approval" style="rounded=0;whiteSpace=wrap;html=1;fontFamily=Times New Roman;fontSize=28;" parent="1" vertex="1">
          <mxGeometry x="-323" y="760" width="140" height="60" as="geometry" />
        </mxCell>
        <mxCell id="kj3o1h7G9YnmJoLtUgAj-19" value="Dashboard" style="rounded=0;whiteSpace=wrap;html=1;fontFamily=Times New Roman;fontSize=28;" parent="1" vertex="1">
          <mxGeometry x="-732" y="680" width="130" height="60" as="geometry" />
        </mxCell>
        <mxCell id="kj3o1h7G9YnmJoLtUgAj-20" value="Prayer Request Approval" style="rounded=0;whiteSpace=wrap;html=1;fontFamily=Times New Roman;fontSize=28;" parent="1" vertex="1">
          <mxGeometry y="680" width="180" height="72" as="geometry" />
        </mxCell>
        <mxCell id="kj3o1h7G9YnmJoLtUgAj-21" value="Prayer Request Categorization" style="rounded=0;whiteSpace=wrap;html=1;fontFamily=Times New Roman;fontSize=28;" parent="1" vertex="1">
          <mxGeometry x="30" y="760" width="180" height="90" as="geometry" />
        </mxCell>
        <mxCell id="kj3o1h7G9YnmJoLtUgAj-22" value="Notifications" style="rounded=0;whiteSpace=wrap;html=1;fontFamily=Times New Roman;fontSize=28;" parent="1" vertex="1">
          <mxGeometry x="460" y="500" width="146" height="60" as="geometry" />
        </mxCell>
        <mxCell id="kj3o1h7G9YnmJoLtUgAj-23" value="Community Creation" style="rounded=0;whiteSpace=wrap;html=1;fontFamily=Times New Roman;fontSize=28;" parent="1" vertex="1">
          <mxGeometry x="-257" y="500" width="165" height="60" as="geometry" />
        </mxCell>
        <mxCell id="kj3o1h7G9YnmJoLtUgAj-24" value="Community Management" style="rounded=0;whiteSpace=wrap;html=1;fontFamily=Times New Roman;fontSize=28;" parent="1" vertex="1">
          <mxGeometry x="-215" y="580" width="190" height="60" as="geometry" />
        </mxCell>
        <mxCell id="kj3o1h7G9YnmJoLtUgAj-26" value="Event Page and Member Response" style="rounded=0;whiteSpace=wrap;html=1;fontFamily=Times New Roman;fontSize=28;" parent="1" vertex="1">
          <mxGeometry x="254" y="740" width="226" height="70" as="geometry" />
        </mxCell>
        <mxCell id="kj3o1h7G9YnmJoLtUgAj-27" value="Event Rating and Evaluation" style="rounded=0;whiteSpace=wrap;html=1;fontFamily=Times New Roman;fontSize=28;" parent="1" vertex="1">
          <mxGeometry x="250" y="820" width="230" height="70" as="geometry" />
        </mxCell>
        <mxCell id="kj3o1h7G9YnmJoLtUgAj-29" value="Community Administration" style="rounded=0;whiteSpace=wrap;html=1;fontFamily=Times New Roman;fontSize=28;" parent="1" vertex="1">
          <mxGeometry x="760" y="500" width="180" height="60" as="geometry" />
        </mxCell>
        <mxCell id="kj3o1h7G9YnmJoLtUgAj-30" value="Dashboard" style="rounded=0;whiteSpace=wrap;html=1;fontFamily=Times New Roman;fontSize=28;" parent="1" vertex="1">
          <mxGeometry x="630" y="500" width="120" height="60" as="geometry" />
        </mxCell>
        <mxCell id="kj3o1h7G9YnmJoLtUgAj-31" value="Discover Communities" style="rounded=0;whiteSpace=wrap;html=1;fontFamily=Times New Roman;fontSize=28;" parent="1" vertex="1">
          <mxGeometry x="-47.5" y="500" width="175" height="60" as="geometry" />
        </mxCell>
        <mxCell id="kj3o1h7G9YnmJoLtUgAj-34" value="Community Page Management" style="rounded=0;whiteSpace=wrap;html=1;fontFamily=Times New Roman;fontSize=28;" parent="1" vertex="1">
          <mxGeometry x="-592" y="680" width="217" height="72" as="geometry" />
        </mxCell>
        <mxCell id="kj3o1h7G9YnmJoLtUgAj-35" value="Community Post Creation" style="rounded=0;whiteSpace=wrap;html=1;fontFamily=Times New Roman;fontSize=28;" parent="1" vertex="1">
          <mxGeometry x="-557" y="765" width="177" height="70" as="geometry" />
        </mxCell>
        <mxCell id="kj3o1h7G9YnmJoLtUgAj-38" value="Incident Management" style="rounded=0;whiteSpace=wrap;html=1;fontFamily=Times New Roman;fontSize=28;" parent="1" vertex="1">
          <mxGeometry x="950" y="500" width="150" height="60" as="geometry" />
        </mxCell>
        <mxCell id="kj3o1h7G9YnmJoLtUgAj-39" value="Summary of User Activity" style="rounded=0;whiteSpace=wrap;html=1;fontFamily=Times New Roman;fontSize=28;" parent="1" vertex="1">
          <mxGeometry x="655" y="580" width="120" height="100" as="geometry" />
        </mxCell>
        <mxCell id="kj3o1h7G9YnmJoLtUgAj-40" value="&amp;nbsp;Community Requests" style="rounded=0;whiteSpace=wrap;html=1;fontFamily=Times New Roman;fontSize=28;" parent="1" vertex="1">
          <mxGeometry x="810" y="580" width="150" height="60" as="geometry" />
        </mxCell>
        <mxCell id="HAwSLNxZXXh88FMERZLZ-1" value="" style="endArrow=none;html=1;rounded=0;entryX=0.5;entryY=1;entryDx=0;entryDy=0;exitX=0.5;exitY=0;exitDx=0;exitDy=0;fontSize=28;" parent="1" source="9FZ4AC-YBpyKF_zebIb_-5" target="9FZ4AC-YBpyKF_zebIb_-1" edge="1">
          <mxGeometry width="50" height="50" relative="1" as="geometry">
            <mxPoint x="335" y="340" as="sourcePoint" />
            <mxPoint x="385" y="290" as="targetPoint" />
          </mxGeometry>
        </mxCell>
        <mxCell id="HAwSLNxZXXh88FMERZLZ-2" value="" style="endArrow=none;html=1;rounded=0;entryX=0.137;entryY=1.005;entryDx=0;entryDy=0;exitX=0;exitY=0.5;exitDx=0;exitDy=0;entryPerimeter=0;fontSize=28;" parent="1" source="kj3o1h7G9YnmJoLtUgAj-3" target="9FZ4AC-YBpyKF_zebIb_-5" edge="1">
          <mxGeometry width="50" height="50" relative="1" as="geometry">
            <mxPoint x="385" y="140" as="sourcePoint" />
            <mxPoint x="385" y="120" as="targetPoint" />
            <Array as="points">
              <mxPoint x="306" y="240" />
            </Array>
          </mxGeometry>
        </mxCell>
        <mxCell id="HAwSLNxZXXh88FMERZLZ-5" value="" style="endArrow=none;html=1;rounded=0;entryX=0.137;entryY=1.007;entryDx=0;entryDy=0;exitX=0;exitY=0.5;exitDx=0;exitDy=0;entryPerimeter=0;fontSize=28;" parent="1" source="kj3o1h7G9YnmJoLtUgAj-4" target="9FZ4AC-YBpyKF_zebIb_-5" edge="1">
          <mxGeometry width="50" height="50" relative="1" as="geometry">
            <mxPoint x="355" y="250" as="sourcePoint" />
            <mxPoint x="341" y="200" as="targetPoint" />
            <Array as="points">
              <mxPoint x="306" y="320" />
            </Array>
          </mxGeometry>
        </mxCell>
        <mxCell id="HAwSLNxZXXh88FMERZLZ-6" value="" style="endArrow=none;html=1;rounded=0;entryX=0.5;entryY=1;entryDx=0;entryDy=0;exitX=0.5;exitY=0;exitDx=0;exitDy=0;fontSize=28;" parent="1" source="9FZ4AC-YBpyKF_zebIb_-2" target="kj3o1h7G9YnmJoLtUgAj-4" edge="1">
          <mxGeometry width="50" height="50" relative="1" as="geometry">
            <mxPoint x="450" y="460" as="sourcePoint" />
            <mxPoint x="436" y="330" as="targetPoint" />
            <Array as="points">
              <mxPoint x="260" y="380" />
              <mxPoint x="420" y="380" />
            </Array>
          </mxGeometry>
        </mxCell>
        <mxCell id="HAwSLNxZXXh88FMERZLZ-7" value="" style="endArrow=none;html=1;rounded=0;exitX=0.5;exitY=0;exitDx=0;exitDy=0;fontSize=28;" parent="1" source="9FZ4AC-YBpyKF_zebIb_-4" edge="1">
          <mxGeometry width="50" height="50" relative="1" as="geometry">
            <mxPoint x="1000" y="410" as="sourcePoint" />
            <mxPoint x="420" y="350" as="targetPoint" />
            <Array as="points">
              <mxPoint x="930" y="380" />
              <mxPoint x="420" y="380" />
            </Array>
          </mxGeometry>
        </mxCell>
        <mxCell id="HAwSLNxZXXh88FMERZLZ-8" value="" style="endArrow=none;html=1;rounded=0;entryX=0.5;entryY=1;entryDx=0;entryDy=0;exitX=0.5;exitY=0;exitDx=0;exitDy=0;fontSize=28;" parent="1" source="kj3o1h7G9YnmJoLtUgAj-31" target="9FZ4AC-YBpyKF_zebIb_-2" edge="1">
          <mxGeometry width="50" height="50" relative="1" as="geometry">
            <mxPoint x="130" y="510" as="sourcePoint" />
            <mxPoint x="300" y="460" as="targetPoint" />
            <Array as="points">
              <mxPoint x="40" y="480" />
              <mxPoint x="260" y="480" />
            </Array>
          </mxGeometry>
        </mxCell>
        <mxCell id="HAwSLNxZXXh88FMERZLZ-9" value="" style="endArrow=none;html=1;rounded=0;entryX=0.5;entryY=1;entryDx=0;entryDy=0;exitX=0.5;exitY=0;exitDx=0;exitDy=0;fontSize=28;" parent="1" source="kj3o1h7G9YnmJoLtUgAj-23" target="9FZ4AC-YBpyKF_zebIb_-2" edge="1">
          <mxGeometry width="50" height="50" relative="1" as="geometry">
            <mxPoint x="60" y="500" as="sourcePoint" />
            <mxPoint x="300" y="460" as="targetPoint" />
            <Array as="points">
              <mxPoint x="-174" y="480" />
              <mxPoint x="260" y="480" />
            </Array>
          </mxGeometry>
        </mxCell>
        <mxCell id="HAwSLNxZXXh88FMERZLZ-10" value="" style="endArrow=none;html=1;rounded=0;entryX=0.5;entryY=1;entryDx=0;entryDy=0;exitX=0.5;exitY=0;exitDx=0;exitDy=0;fontSize=28;" parent="1" source="kj3o1h7G9YnmJoLtUgAj-11" target="9FZ4AC-YBpyKF_zebIb_-2" edge="1">
          <mxGeometry width="50" height="50" relative="1" as="geometry">
            <mxPoint x="60" y="500" as="sourcePoint" />
            <mxPoint x="300" y="460" as="targetPoint" />
            <Array as="points">
              <mxPoint x="230" y="480" />
              <mxPoint x="260" y="480" />
            </Array>
          </mxGeometry>
        </mxCell>
        <mxCell id="HAwSLNxZXXh88FMERZLZ-12" value="" style="endArrow=none;html=1;rounded=0;entryX=0.5;entryY=1;entryDx=0;entryDy=0;exitX=0.5;exitY=0;exitDx=0;exitDy=0;fontSize=28;" parent="1" source="kj3o1h7G9YnmJoLtUgAj-13" edge="1">
          <mxGeometry width="50" height="50" relative="1" as="geometry">
            <mxPoint x="390" y="500" as="sourcePoint" />
            <mxPoint x="260" y="460" as="targetPoint" />
            <Array as="points">
              <mxPoint x="390" y="480" />
              <mxPoint x="260" y="480" />
            </Array>
          </mxGeometry>
        </mxCell>
        <mxCell id="HAwSLNxZXXh88FMERZLZ-13" value="" style="endArrow=none;html=1;rounded=0;entryX=0.5;entryY=1;entryDx=0;entryDy=0;exitX=0.5;exitY=0;exitDx=0;exitDy=0;fontSize=28;" parent="1" source="kj3o1h7G9YnmJoLtUgAj-22" edge="1">
          <mxGeometry width="50" height="50" relative="1" as="geometry">
            <mxPoint x="550" y="500" as="sourcePoint" />
            <mxPoint x="260" y="460" as="targetPoint" />
            <Array as="points">
              <mxPoint x="533" y="480" />
              <mxPoint x="260" y="480" />
            </Array>
          </mxGeometry>
        </mxCell>
        <mxCell id="HAwSLNxZXXh88FMERZLZ-14" value="" style="endArrow=none;html=1;rounded=0;entryX=0.087;entryY=0.998;entryDx=0;entryDy=0;entryPerimeter=0;exitX=0;exitY=0.5;exitDx=0;exitDy=0;fontSize=28;" parent="1" source="kj3o1h7G9YnmJoLtUgAj-24" target="kj3o1h7G9YnmJoLtUgAj-23" edge="1">
          <mxGeometry width="50" height="50" relative="1" as="geometry">
            <mxPoint x="-5" y="750" as="sourcePoint" />
            <mxPoint x="45" y="700" as="targetPoint" />
            <Array as="points">
              <mxPoint x="-243" y="610" />
            </Array>
          </mxGeometry>
        </mxCell>
        <mxCell id="HAwSLNxZXXh88FMERZLZ-15" value="" style="endArrow=none;html=1;rounded=0;entryX=0.347;entryY=1.017;entryDx=0;entryDy=0;exitX=0.5;exitY=0;exitDx=0;exitDy=0;fontSize=28;entryPerimeter=0;" parent="1" source="kj3o1h7G9YnmJoLtUgAj-19" target="kj3o1h7G9YnmJoLtUgAj-24" edge="1">
          <mxGeometry width="50" height="50" relative="1" as="geometry">
            <mxPoint x="-5" y="750" as="sourcePoint" />
            <mxPoint x="45" y="700" as="targetPoint" />
            <Array as="points">
              <mxPoint x="-667" y="660" />
              <mxPoint x="-150" y="660" />
            </Array>
          </mxGeometry>
        </mxCell>
        <mxCell id="HAwSLNxZXXh88FMERZLZ-16" value="" style="endArrow=none;html=1;rounded=0;entryX=0.5;entryY=1;entryDx=0;entryDy=0;exitX=0.5;exitY=0;exitDx=0;exitDy=0;fontSize=28;" parent="1" source="kj3o1h7G9YnmJoLtUgAj-34" edge="1">
          <mxGeometry width="50" height="50" relative="1" as="geometry">
            <mxPoint x="-570" y="680" as="sourcePoint" />
            <mxPoint x="-150" y="640" as="targetPoint" />
            <Array as="points">
              <mxPoint x="-483" y="660" />
              <mxPoint x="-150" y="660" />
            </Array>
          </mxGeometry>
        </mxCell>
        <mxCell id="HAwSLNxZXXh88FMERZLZ-17" value="" style="endArrow=none;html=1;rounded=0;entryX=0.343;entryY=1.03;entryDx=0;entryDy=0;exitX=0.5;exitY=0;exitDx=0;exitDy=0;fontSize=28;entryPerimeter=0;" parent="1" source="kj3o1h7G9YnmJoLtUgAj-16" target="kj3o1h7G9YnmJoLtUgAj-24" edge="1">
          <mxGeometry width="50" height="50" relative="1" as="geometry">
            <mxPoint x="-5" y="750" as="sourcePoint" />
            <mxPoint x="45" y="700" as="targetPoint" />
            <Array as="points">
              <mxPoint x="-283" y="660" />
              <mxPoint x="-150" y="660" />
            </Array>
          </mxGeometry>
        </mxCell>
        <mxCell id="HAwSLNxZXXh88FMERZLZ-18" value="" style="endArrow=none;html=1;rounded=0;entryX=0.343;entryY=1.003;entryDx=0;entryDy=0;exitX=0.5;exitY=0;exitDx=0;exitDy=0;fontSize=28;entryPerimeter=0;" parent="1" source="kj3o1h7G9YnmJoLtUgAj-12" target="kj3o1h7G9YnmJoLtUgAj-24" edge="1">
          <mxGeometry width="50" height="50" relative="1" as="geometry">
            <mxPoint x="-5" y="750" as="sourcePoint" />
            <mxPoint x="45" y="700" as="targetPoint" />
            <Array as="points">
              <mxPoint x="-85" y="660" />
              <mxPoint x="-150" y="660" />
            </Array>
          </mxGeometry>
        </mxCell>
        <mxCell id="HAwSLNxZXXh88FMERZLZ-19" value="" style="endArrow=none;html=1;rounded=0;entryX=0.5;entryY=1;entryDx=0;entryDy=0;exitX=0.5;exitY=0;exitDx=0;exitDy=0;fontSize=28;" parent="1" source="kj3o1h7G9YnmJoLtUgAj-20" edge="1">
          <mxGeometry width="50" height="50" relative="1" as="geometry">
            <mxPoint x="-100" y="680" as="sourcePoint" />
            <mxPoint x="-150" y="640" as="targetPoint" />
            <Array as="points">
              <mxPoint x="90" y="660" />
              <mxPoint x="-150" y="660" />
            </Array>
          </mxGeometry>
        </mxCell>
        <mxCell id="HAwSLNxZXXh88FMERZLZ-23" value="" style="endArrow=none;html=1;rounded=0;entryX=0.087;entryY=1.013;entryDx=0;entryDy=0;entryPerimeter=0;exitX=0;exitY=0.5;exitDx=0;exitDy=0;fontSize=28;" parent="1" source="kj3o1h7G9YnmJoLtUgAj-18" edge="1">
          <mxGeometry width="50" height="50" relative="1" as="geometry">
            <mxPoint x="-328" y="789" as="sourcePoint" />
            <mxPoint x="-338" y="740" as="targetPoint" />
            <Array as="points">
              <mxPoint x="-338" y="790" />
            </Array>
          </mxGeometry>
        </mxCell>
        <mxCell id="HAwSLNxZXXh88FMERZLZ-26" value="" style="endArrow=none;html=1;rounded=0;entryX=0.087;entryY=1.013;entryDx=0;entryDy=0;entryPerimeter=0;exitX=0;exitY=0.5;exitDx=0;exitDy=0;fontSize=28;" parent="1" source="kj3o1h7G9YnmJoLtUgAj-17" edge="1">
          <mxGeometry width="50" height="50" relative="1" as="geometry">
            <mxPoint x="-323" y="790" as="sourcePoint" />
            <mxPoint x="-338" y="740" as="targetPoint" />
            <Array as="points">
              <mxPoint x="-338" y="870" />
            </Array>
          </mxGeometry>
        </mxCell>
        <mxCell id="HAwSLNxZXXh88FMERZLZ-29" value="" style="endArrow=none;html=1;rounded=0;entryX=0.127;entryY=0.995;entryDx=0;entryDy=0;entryPerimeter=0;exitX=0;exitY=0.5;exitDx=0;exitDy=0;fontSize=28;" parent="1" edge="1">
          <mxGeometry width="50" height="50" relative="1" as="geometry">
            <mxPoint x="-130" y="790" as="sourcePoint" />
            <mxPoint x="-145" y="740" as="targetPoint" />
            <Array as="points">
              <mxPoint x="-145" y="790" />
            </Array>
          </mxGeometry>
        </mxCell>
        <mxCell id="HAwSLNxZXXh88FMERZLZ-30" value="" style="endArrow=none;html=1;rounded=0;entryX=0.127;entryY=0.995;entryDx=0;entryDy=0;entryPerimeter=0;exitX=0;exitY=0.5;exitDx=0;exitDy=0;fontSize=28;" parent="1" source="kj3o1h7G9YnmJoLtUgAj-15" edge="1">
          <mxGeometry width="50" height="50" relative="1" as="geometry">
            <mxPoint x="-130" y="790" as="sourcePoint" />
            <mxPoint x="-145" y="740" as="targetPoint" />
            <Array as="points">
              <mxPoint x="-145" y="870" />
            </Array>
          </mxGeometry>
        </mxCell>
        <mxCell id="HAwSLNxZXXh88FMERZLZ-32" value="" style="endArrow=none;html=1;rounded=0;exitX=0;exitY=0.5;exitDx=0;exitDy=0;fontSize=28;" parent="1" edge="1">
          <mxGeometry width="50" height="50" relative="1" as="geometry">
            <mxPoint x="30" y="790" as="sourcePoint" />
            <mxPoint x="15" y="752" as="targetPoint" />
            <Array as="points">
              <mxPoint x="15" y="790" />
            </Array>
          </mxGeometry>
        </mxCell>
        <mxCell id="HAwSLNxZXXh88FMERZLZ-37" value="" style="endArrow=none;html=1;rounded=0;exitX=0.389;exitY=1.017;exitDx=0;exitDy=0;exitPerimeter=0;entryX=0;entryY=0.5;entryDx=0;entryDy=0;fontSize=28;" parent="1" source="kj3o1h7G9YnmJoLtUgAj-11" target="9FZ4AC-YBpyKF_zebIb_-3" edge="1">
          <mxGeometry width="50" height="50" relative="1" as="geometry">
            <mxPoint x="180" y="670" as="sourcePoint" />
            <mxPoint x="230" y="620" as="targetPoint" />
            <Array as="points">
              <mxPoint x="210" y="610" />
            </Array>
          </mxGeometry>
        </mxCell>
        <mxCell id="HAwSLNxZXXh88FMERZLZ-38" value="" style="endArrow=none;html=1;rounded=0;exitX=0.085;exitY=1.003;exitDx=0;exitDy=0;exitPerimeter=0;entryX=0;entryY=0.5;entryDx=0;entryDy=0;fontSize=28;" parent="1" edge="1">
          <mxGeometry width="50" height="50" relative="1" as="geometry">
            <mxPoint x="210" y="560" as="sourcePoint" />
            <mxPoint x="225" y="690" as="targetPoint" />
            <Array as="points">
              <mxPoint x="210" y="690" />
            </Array>
          </mxGeometry>
        </mxCell>
        <mxCell id="HAwSLNxZXXh88FMERZLZ-39" value="" style="endArrow=none;html=1;rounded=0;exitX=0;exitY=0.5;exitDx=0;exitDy=0;fontSize=28;" parent="1" source="kj3o1h7G9YnmJoLtUgAj-26" edge="1">
          <mxGeometry width="50" height="50" relative="1" as="geometry">
            <mxPoint x="205" y="800" as="sourcePoint" />
            <mxPoint x="240" y="720" as="targetPoint" />
            <Array as="points">
              <mxPoint x="240" y="775" />
            </Array>
          </mxGeometry>
        </mxCell>
        <mxCell id="HAwSLNxZXXh88FMERZLZ-40" value="" style="endArrow=none;html=1;rounded=0;entryX=0.122;entryY=1.003;entryDx=0;entryDy=0;entryPerimeter=0;exitX=0;exitY=0.5;exitDx=0;exitDy=0;fontSize=28;" parent="1" source="kj3o1h7G9YnmJoLtUgAj-27" edge="1">
          <mxGeometry width="50" height="50" relative="1" as="geometry">
            <mxPoint x="254" y="770" as="sourcePoint" />
            <mxPoint x="240" y="720" as="targetPoint" />
            <Array as="points">
              <mxPoint x="240" y="855" />
            </Array>
          </mxGeometry>
        </mxCell>
        <mxCell id="HAwSLNxZXXh88FMERZLZ-41" value="" style="endArrow=none;html=1;rounded=0;entryX=0.5;entryY=1;entryDx=0;entryDy=0;exitX=0.5;exitY=0;exitDx=0;exitDy=0;fontSize=28;" parent="1" source="kj3o1h7G9YnmJoLtUgAj-30" target="9FZ4AC-YBpyKF_zebIb_-4" edge="1">
          <mxGeometry width="50" height="50" relative="1" as="geometry">
            <mxPoint x="775" y="680" as="sourcePoint" />
            <mxPoint x="825" y="630" as="targetPoint" />
            <Array as="points">
              <mxPoint x="690" y="480" />
              <mxPoint x="850" y="480" />
              <mxPoint x="930" y="480" />
            </Array>
          </mxGeometry>
        </mxCell>
        <mxCell id="HAwSLNxZXXh88FMERZLZ-42" value="" style="endArrow=none;html=1;rounded=0;entryX=0.5;entryY=1;entryDx=0;entryDy=0;exitX=0.5;exitY=0;exitDx=0;exitDy=0;fontSize=28;" parent="1" source="kj3o1h7G9YnmJoLtUgAj-29" target="9FZ4AC-YBpyKF_zebIb_-4" edge="1">
          <mxGeometry width="50" height="50" relative="1" as="geometry">
            <mxPoint x="775" y="680" as="sourcePoint" />
            <mxPoint x="825" y="630" as="targetPoint" />
            <Array as="points">
              <mxPoint x="850" y="480" />
              <mxPoint x="930" y="480" />
            </Array>
          </mxGeometry>
        </mxCell>
        <mxCell id="HAwSLNxZXXh88FMERZLZ-43" value="" style="endArrow=none;html=1;rounded=0;entryX=0.5;entryY=1;entryDx=0;entryDy=0;exitX=0.5;exitY=0;exitDx=0;exitDy=0;fontSize=28;" parent="1" source="kj3o1h7G9YnmJoLtUgAj-38" target="9FZ4AC-YBpyKF_zebIb_-4" edge="1">
          <mxGeometry width="50" height="50" relative="1" as="geometry">
            <mxPoint x="860" y="510" as="sourcePoint" />
            <mxPoint x="860" y="470" as="targetPoint" />
            <Array as="points">
              <mxPoint x="1025" y="480" />
              <mxPoint x="930" y="480" />
            </Array>
          </mxGeometry>
        </mxCell>
        <mxCell id="HAwSLNxZXXh88FMERZLZ-44" value="" style="endArrow=none;html=1;rounded=0;entryX=0.095;entryY=1.013;entryDx=0;entryDy=0;entryPerimeter=0;exitX=0;exitY=0.5;exitDx=0;exitDy=0;fontSize=28;" parent="1" source="kj3o1h7G9YnmJoLtUgAj-39" target="kj3o1h7G9YnmJoLtUgAj-30" edge="1">
          <mxGeometry width="50" height="50" relative="1" as="geometry">
            <mxPoint x="775" y="680" as="sourcePoint" />
            <mxPoint x="825" y="630" as="targetPoint" />
            <Array as="points">
              <mxPoint x="640" y="630" />
            </Array>
          </mxGeometry>
        </mxCell>
        <mxCell id="HAwSLNxZXXh88FMERZLZ-45" value="" style="endArrow=none;html=1;rounded=0;entryX=0.095;entryY=1.013;entryDx=0;entryDy=0;entryPerimeter=0;exitX=0;exitY=0.5;exitDx=0;exitDy=0;fontSize=28;" parent="1" edge="1">
          <mxGeometry width="50" height="50" relative="1" as="geometry">
            <mxPoint x="810" y="609" as="sourcePoint" />
            <mxPoint x="796" y="560" as="targetPoint" />
            <Array as="points">
              <mxPoint x="796" y="609" />
            </Array>
          </mxGeometry>
        </mxCell>
        <mxCell id="bCOwalmUwec0UZeo76KL-1" value="Analytics" style="rounded=0;whiteSpace=wrap;html=1;fontFamily=Times New Roman;fontSize=28;" parent="1" vertex="1">
          <mxGeometry x="1110" y="500" width="120" height="60" as="geometry" />
        </mxCell>
        <mxCell id="bCOwalmUwec0UZeo76KL-2" value="" style="endArrow=none;html=1;rounded=0;entryX=0.5;entryY=1;entryDx=0;entryDy=0;exitX=0.5;exitY=0;exitDx=0;exitDy=0;fontSize=28;" parent="1" source="bCOwalmUwec0UZeo76KL-1" target="9FZ4AC-YBpyKF_zebIb_-4" edge="1">
          <mxGeometry width="50" height="50" relative="1" as="geometry">
            <mxPoint x="1020" y="510" as="sourcePoint" />
            <mxPoint x="1090" y="460" as="targetPoint" />
            <Array as="points">
              <mxPoint x="1170" y="480" />
              <mxPoint x="930" y="480" />
            </Array>
          </mxGeometry>
        </mxCell>
        <mxCell id="SFuP1RmGtPxHwMB_tCEh-1" value="" style="endArrow=none;html=1;rounded=0;entryX=0.087;entryY=1.013;entryDx=0;entryDy=0;entryPerimeter=0;exitX=0;exitY=0.5;exitDx=0;exitDy=0;fontSize=28;" parent="1" edge="1">
          <mxGeometry width="50" height="50" relative="1" as="geometry">
            <mxPoint x="-557" y="802" as="sourcePoint" />
            <mxPoint x="-572" y="752" as="targetPoint" />
            <Array as="points">
              <mxPoint x="-572" y="802" />
            </Array>
          </mxGeometry>
        </mxCell>
      </root>
    </mxGraphModel>
  </diagram>
  <diagram id="mglGndfrsaT9k3bc9Ude" name="DecompositionVer2">
    <mxGraphModel dx="1553" dy="928" grid="1" gridSize="10" guides="1" tooltips="1" connect="1" arrows="1" fold="1" page="1" pageScale="1" pageWidth="850" pageHeight="1100" math="0" shadow="0">
      <root>
        <mxCell id="0" />
        <mxCell id="1" parent="0" />
        <mxCell id="mhduNKsisUSPCsZ8M5Ks-13" style="edgeStyle=orthogonalEdgeStyle;rounded=0;orthogonalLoop=1;jettySize=auto;html=1;entryX=0.5;entryY=0;entryDx=0;entryDy=0;endArrow=none;endFill=0;" parent="1" source="u2Z0vMGadVyFPGaQkaiw-1" target="u2Z0vMGadVyFPGaQkaiw-2" edge="1">
          <mxGeometry relative="1" as="geometry">
            <Array as="points">
              <mxPoint x="665" y="130" />
              <mxPoint x="85" y="130" />
            </Array>
          </mxGeometry>
        </mxCell>
        <mxCell id="mhduNKsisUSPCsZ8M5Ks-14" style="edgeStyle=orthogonalEdgeStyle;rounded=0;orthogonalLoop=1;jettySize=auto;html=1;exitX=0.5;exitY=1;exitDx=0;exitDy=0;endArrow=none;endFill=0;" parent="1" source="u2Z0vMGadVyFPGaQkaiw-1" target="u2Z0vMGadVyFPGaQkaiw-3" edge="1">
          <mxGeometry relative="1" as="geometry">
            <Array as="points">
              <mxPoint x="665" y="130" />
              <mxPoint x="275" y="130" />
            </Array>
          </mxGeometry>
        </mxCell>
        <mxCell id="mhduNKsisUSPCsZ8M5Ks-16" style="edgeStyle=orthogonalEdgeStyle;rounded=0;orthogonalLoop=1;jettySize=auto;html=1;exitX=0.5;exitY=1;exitDx=0;exitDy=0;entryX=0.5;entryY=0;entryDx=0;entryDy=0;endArrow=none;endFill=0;" parent="1" source="u2Z0vMGadVyFPGaQkaiw-1" target="IFzmhrfzKDSi092EdZhi-2" edge="1">
          <mxGeometry relative="1" as="geometry">
            <Array as="points">
              <mxPoint x="665" y="130" />
              <mxPoint x="465" y="130" />
            </Array>
          </mxGeometry>
        </mxCell>
        <mxCell id="mhduNKsisUSPCsZ8M5Ks-17" style="edgeStyle=orthogonalEdgeStyle;rounded=0;orthogonalLoop=1;jettySize=auto;html=1;exitX=0.5;exitY=1;exitDx=0;exitDy=0;endArrow=none;endFill=0;" parent="1" source="u2Z0vMGadVyFPGaQkaiw-1" target="IFzmhrfzKDSi092EdZhi-3" edge="1">
          <mxGeometry relative="1" as="geometry">
            <Array as="points">
              <mxPoint x="665" y="120" />
              <mxPoint x="665" y="120" />
            </Array>
          </mxGeometry>
        </mxCell>
        <mxCell id="mhduNKsisUSPCsZ8M5Ks-18" style="edgeStyle=orthogonalEdgeStyle;rounded=0;orthogonalLoop=1;jettySize=auto;html=1;exitX=0.5;exitY=1;exitDx=0;exitDy=0;entryX=0.5;entryY=0;entryDx=0;entryDy=0;endArrow=none;endFill=0;" parent="1" source="u2Z0vMGadVyFPGaQkaiw-1" target="IFzmhrfzKDSi092EdZhi-4" edge="1">
          <mxGeometry relative="1" as="geometry">
            <Array as="points">
              <mxPoint x="665" y="130" />
              <mxPoint x="855" y="130" />
            </Array>
          </mxGeometry>
        </mxCell>
        <mxCell id="mhduNKsisUSPCsZ8M5Ks-20" style="edgeStyle=orthogonalEdgeStyle;rounded=0;orthogonalLoop=1;jettySize=auto;html=1;exitX=0.5;exitY=1;exitDx=0;exitDy=0;entryX=0.5;entryY=0;entryDx=0;entryDy=0;endArrow=none;endFill=0;" parent="1" source="u2Z0vMGadVyFPGaQkaiw-1" target="mhduNKsisUSPCsZ8M5Ks-5" edge="1">
          <mxGeometry relative="1" as="geometry">
            <Array as="points">
              <mxPoint x="665" y="130" />
              <mxPoint x="1035" y="130" />
            </Array>
          </mxGeometry>
        </mxCell>
        <mxCell id="0Bb5Hiok8u6sg8s_Xbsu-8" style="edgeStyle=orthogonalEdgeStyle;rounded=0;orthogonalLoop=1;jettySize=auto;html=1;exitX=0.5;exitY=1;exitDx=0;exitDy=0;entryX=0.5;entryY=0;entryDx=0;entryDy=0;endArrow=none;endFill=0;" edge="1" parent="1" source="u2Z0vMGadVyFPGaQkaiw-1" target="0Bb5Hiok8u6sg8s_Xbsu-5">
          <mxGeometry relative="1" as="geometry">
            <Array as="points">
              <mxPoint x="665" y="130" />
              <mxPoint x="1235" y="130" />
            </Array>
          </mxGeometry>
        </mxCell>
        <mxCell id="u2Z0vMGadVyFPGaQkaiw-1" value="ConnexUs" style="rounded=0;whiteSpace=wrap;html=1;fontFamily=Times New Roman;fontSize=28;" parent="1" vertex="1">
          <mxGeometry x="590" y="40" width="150" height="60" as="geometry" />
        </mxCell>
        <mxCell id="mhduNKsisUSPCsZ8M5Ks-21" style="edgeStyle=orthogonalEdgeStyle;rounded=0;orthogonalLoop=1;jettySize=auto;html=1;exitX=0.25;exitY=1;exitDx=0;exitDy=0;entryX=0;entryY=0.5;entryDx=0;entryDy=0;endArrow=none;endFill=0;" parent="1" source="u2Z0vMGadVyFPGaQkaiw-2" target="mhduNKsisUSPCsZ8M5Ks-11" edge="1">
          <mxGeometry relative="1" as="geometry" />
        </mxCell>
        <mxCell id="mhduNKsisUSPCsZ8M5Ks-22" style="edgeStyle=orthogonalEdgeStyle;rounded=0;orthogonalLoop=1;jettySize=auto;html=1;exitX=0.25;exitY=1;exitDx=0;exitDy=0;entryX=0;entryY=0.5;entryDx=0;entryDy=0;endArrow=none;endFill=0;" parent="1" source="u2Z0vMGadVyFPGaQkaiw-2" target="mhduNKsisUSPCsZ8M5Ks-12" edge="1">
          <mxGeometry relative="1" as="geometry" />
        </mxCell>
        <mxCell id="u2Z0vMGadVyFPGaQkaiw-2" value="Accounts" style="rounded=0;whiteSpace=wrap;html=1;fontFamily=Times New Roman;fontSize=28;" parent="1" vertex="1">
          <mxGeometry x="10" y="160" width="150" height="60" as="geometry" />
        </mxCell>
        <mxCell id="0Bb5Hiok8u6sg8s_Xbsu-9" style="edgeStyle=orthogonalEdgeStyle;rounded=0;orthogonalLoop=1;jettySize=auto;html=1;exitX=0.25;exitY=1;exitDx=0;exitDy=0;entryX=0;entryY=0.5;entryDx=0;entryDy=0;endArrow=none;endFill=0;" edge="1" parent="1" source="u2Z0vMGadVyFPGaQkaiw-3" target="PNNgbAHHAvgGDny7pBzx-1">
          <mxGeometry relative="1" as="geometry" />
        </mxCell>
        <mxCell id="0Bb5Hiok8u6sg8s_Xbsu-10" style="edgeStyle=orthogonalEdgeStyle;rounded=0;orthogonalLoop=1;jettySize=auto;html=1;exitX=0.25;exitY=1;exitDx=0;exitDy=0;entryX=0;entryY=0.5;entryDx=0;entryDy=0;endArrow=none;endFill=0;" edge="1" parent="1" source="u2Z0vMGadVyFPGaQkaiw-3" target="PNNgbAHHAvgGDny7pBzx-2">
          <mxGeometry relative="1" as="geometry" />
        </mxCell>
        <mxCell id="0Bb5Hiok8u6sg8s_Xbsu-11" style="edgeStyle=orthogonalEdgeStyle;rounded=0;orthogonalLoop=1;jettySize=auto;html=1;exitX=0.25;exitY=1;exitDx=0;exitDy=0;entryX=0;entryY=0.5;entryDx=0;entryDy=0;endArrow=none;endFill=0;" edge="1" parent="1" source="u2Z0vMGadVyFPGaQkaiw-3" target="PNNgbAHHAvgGDny7pBzx-3">
          <mxGeometry relative="1" as="geometry" />
        </mxCell>
        <mxCell id="u2Z0vMGadVyFPGaQkaiw-3" value="Community" style="rounded=0;whiteSpace=wrap;html=1;fontFamily=Times New Roman;fontSize=28;" parent="1" vertex="1">
          <mxGeometry x="200" y="160" width="150" height="60" as="geometry" />
        </mxCell>
        <mxCell id="0Bb5Hiok8u6sg8s_Xbsu-12" style="edgeStyle=orthogonalEdgeStyle;rounded=0;orthogonalLoop=1;jettySize=auto;html=1;exitX=0.25;exitY=1;exitDx=0;exitDy=0;entryX=0;entryY=0.5;entryDx=0;entryDy=0;endArrow=none;endFill=0;" edge="1" parent="1" source="IFzmhrfzKDSi092EdZhi-2" target="nrga4CZs3PouBWdDomQ6-1">
          <mxGeometry relative="1" as="geometry" />
        </mxCell>
        <mxCell id="0Bb5Hiok8u6sg8s_Xbsu-13" style="edgeStyle=orthogonalEdgeStyle;rounded=0;orthogonalLoop=1;jettySize=auto;html=1;exitX=0.25;exitY=1;exitDx=0;exitDy=0;entryX=0;entryY=0.5;entryDx=0;entryDy=0;endArrow=none;endFill=0;" edge="1" parent="1" source="IFzmhrfzKDSi092EdZhi-2" target="nrga4CZs3PouBWdDomQ6-2">
          <mxGeometry relative="1" as="geometry" />
        </mxCell>
        <mxCell id="0Bb5Hiok8u6sg8s_Xbsu-14" style="edgeStyle=orthogonalEdgeStyle;rounded=0;orthogonalLoop=1;jettySize=auto;html=1;exitX=0.25;exitY=1;exitDx=0;exitDy=0;entryX=0;entryY=0.5;entryDx=0;entryDy=0;endArrow=none;endFill=0;" edge="1" parent="1" source="IFzmhrfzKDSi092EdZhi-2" target="nrga4CZs3PouBWdDomQ6-3">
          <mxGeometry relative="1" as="geometry" />
        </mxCell>
        <mxCell id="IFzmhrfzKDSi092EdZhi-2" value="Membership" style="rounded=0;whiteSpace=wrap;html=1;fontFamily=Times New Roman;fontSize=28;" parent="1" vertex="1">
          <mxGeometry x="390" y="160" width="150" height="60" as="geometry" />
        </mxCell>
        <mxCell id="mhduNKsisUSPCsZ8M5Ks-23" style="edgeStyle=orthogonalEdgeStyle;rounded=0;orthogonalLoop=1;jettySize=auto;html=1;exitX=0.25;exitY=1;exitDx=0;exitDy=0;entryX=0;entryY=0.5;entryDx=0;entryDy=0;endArrow=none;endFill=0;" parent="1" source="IFzmhrfzKDSi092EdZhi-3" target="mhduNKsisUSPCsZ8M5Ks-9" edge="1">
          <mxGeometry relative="1" as="geometry" />
        </mxCell>
        <mxCell id="mhduNKsisUSPCsZ8M5Ks-24" style="edgeStyle=orthogonalEdgeStyle;rounded=0;orthogonalLoop=1;jettySize=auto;html=1;exitX=0.25;exitY=1;exitDx=0;exitDy=0;entryX=0;entryY=0.5;entryDx=0;entryDy=0;endArrow=none;endFill=0;" parent="1" source="IFzmhrfzKDSi092EdZhi-3" target="mhduNKsisUSPCsZ8M5Ks-10" edge="1">
          <mxGeometry relative="1" as="geometry" />
        </mxCell>
        <mxCell id="IFzmhrfzKDSi092EdZhi-3" value="Prayer Requests" style="rounded=0;whiteSpace=wrap;html=1;fontFamily=Times New Roman;fontSize=28;" parent="1" vertex="1">
          <mxGeometry x="590" y="160" width="150" height="60" as="geometry" />
        </mxCell>
        <mxCell id="0Bb5Hiok8u6sg8s_Xbsu-15" style="edgeStyle=orthogonalEdgeStyle;rounded=0;orthogonalLoop=1;jettySize=auto;html=1;exitX=0.25;exitY=1;exitDx=0;exitDy=0;entryX=0;entryY=0.5;entryDx=0;entryDy=0;endArrow=none;endFill=0;" edge="1" parent="1" source="IFzmhrfzKDSi092EdZhi-4" target="0Bb5Hiok8u6sg8s_Xbsu-4">
          <mxGeometry relative="1" as="geometry" />
        </mxCell>
        <mxCell id="0Bb5Hiok8u6sg8s_Xbsu-16" style="edgeStyle=orthogonalEdgeStyle;rounded=0;orthogonalLoop=1;jettySize=auto;html=1;exitX=0.25;exitY=1;exitDx=0;exitDy=0;entryX=0;entryY=0.5;entryDx=0;entryDy=0;endArrow=none;endFill=0;" edge="1" parent="1" source="IFzmhrfzKDSi092EdZhi-4" target="0Bb5Hiok8u6sg8s_Xbsu-1">
          <mxGeometry relative="1" as="geometry" />
        </mxCell>
        <mxCell id="0Bb5Hiok8u6sg8s_Xbsu-17" style="edgeStyle=orthogonalEdgeStyle;rounded=0;orthogonalLoop=1;jettySize=auto;html=1;exitX=0.25;exitY=1;exitDx=0;exitDy=0;entryX=0;entryY=0.5;entryDx=0;entryDy=0;endArrow=none;endFill=0;" edge="1" parent="1" source="IFzmhrfzKDSi092EdZhi-4" target="0Bb5Hiok8u6sg8s_Xbsu-2">
          <mxGeometry relative="1" as="geometry" />
        </mxCell>
        <mxCell id="0Bb5Hiok8u6sg8s_Xbsu-18" style="edgeStyle=orthogonalEdgeStyle;rounded=0;orthogonalLoop=1;jettySize=auto;html=1;exitX=0.25;exitY=1;exitDx=0;exitDy=0;entryX=0;entryY=0.5;entryDx=0;entryDy=0;endArrow=none;endFill=0;" edge="1" parent="1" source="IFzmhrfzKDSi092EdZhi-4" target="0Bb5Hiok8u6sg8s_Xbsu-3">
          <mxGeometry relative="1" as="geometry" />
        </mxCell>
        <mxCell id="IFzmhrfzKDSi092EdZhi-4" value="Events" style="rounded=0;whiteSpace=wrap;html=1;fontFamily=Times New Roman;fontSize=28;" parent="1" vertex="1">
          <mxGeometry x="780" y="160" width="150" height="60" as="geometry" />
        </mxCell>
        <mxCell id="0Bb5Hiok8u6sg8s_Xbsu-19" style="edgeStyle=orthogonalEdgeStyle;rounded=0;orthogonalLoop=1;jettySize=auto;html=1;exitX=0.25;exitY=1;exitDx=0;exitDy=0;entryX=0;entryY=0.5;entryDx=0;entryDy=0;endArrow=none;endFill=0;" edge="1" parent="1" source="mhduNKsisUSPCsZ8M5Ks-5" target="mhduNKsisUSPCsZ8M5Ks-6">
          <mxGeometry relative="1" as="geometry" />
        </mxCell>
        <mxCell id="0Bb5Hiok8u6sg8s_Xbsu-20" style="edgeStyle=orthogonalEdgeStyle;rounded=0;orthogonalLoop=1;jettySize=auto;html=1;exitX=0.25;exitY=1;exitDx=0;exitDy=0;entryX=0;entryY=0.5;entryDx=0;entryDy=0;endArrow=none;endFill=0;" edge="1" parent="1" source="mhduNKsisUSPCsZ8M5Ks-5" target="mhduNKsisUSPCsZ8M5Ks-7">
          <mxGeometry relative="1" as="geometry" />
        </mxCell>
        <mxCell id="0Bb5Hiok8u6sg8s_Xbsu-21" style="edgeStyle=orthogonalEdgeStyle;rounded=0;orthogonalLoop=1;jettySize=auto;html=1;exitX=0.25;exitY=1;exitDx=0;exitDy=0;entryX=0;entryY=0.5;entryDx=0;entryDy=0;endArrow=none;endFill=0;" edge="1" parent="1" source="mhduNKsisUSPCsZ8M5Ks-5" target="mhduNKsisUSPCsZ8M5Ks-8">
          <mxGeometry relative="1" as="geometry" />
        </mxCell>
        <mxCell id="mhduNKsisUSPCsZ8M5Ks-5" value="Incident Handling" style="rounded=0;whiteSpace=wrap;html=1;fontFamily=Times New Roman;fontSize=28;" parent="1" vertex="1">
          <mxGeometry x="970" y="160" width="150" height="60" as="geometry" />
        </mxCell>
        <mxCell id="mhduNKsisUSPCsZ8M5Ks-6" value="Reporting Posts" style="rounded=0;whiteSpace=wrap;html=1;fontFamily=Times New Roman;fontSize=28;" parent="1" vertex="1">
          <mxGeometry x="1029" y="250" width="150" height="60" as="geometry" />
        </mxCell>
        <mxCell id="mhduNKsisUSPCsZ8M5Ks-7" value="Reporting Prayers" style="rounded=0;whiteSpace=wrap;html=1;fontFamily=Times New Roman;fontSize=28;" parent="1" vertex="1">
          <mxGeometry x="1029" y="340" width="150" height="60" as="geometry" />
        </mxCell>
        <mxCell id="mhduNKsisUSPCsZ8M5Ks-8" value="Reporting Communities" style="rounded=0;whiteSpace=wrap;html=1;fontFamily=Times New Roman;fontSize=28;" parent="1" vertex="1">
          <mxGeometry x="1029" y="430" width="150" height="60" as="geometry" />
        </mxCell>
        <mxCell id="mhduNKsisUSPCsZ8M5Ks-9" value="Prayer Submission" style="rounded=0;whiteSpace=wrap;html=1;fontFamily=Times New Roman;fontSize=28;" parent="1" vertex="1">
          <mxGeometry x="648" y="250" width="150" height="60" as="geometry" />
        </mxCell>
        <mxCell id="mhduNKsisUSPCsZ8M5Ks-10" value="Prayer Approval" style="rounded=0;whiteSpace=wrap;html=1;fontFamily=Times New Roman;fontSize=28;" parent="1" vertex="1">
          <mxGeometry x="648" y="340" width="150" height="60" as="geometry" />
        </mxCell>
        <mxCell id="mhduNKsisUSPCsZ8M5Ks-11" value="Sign up" style="rounded=0;whiteSpace=wrap;html=1;fontFamily=Times New Roman;fontSize=28;" parent="1" vertex="1">
          <mxGeometry x="67" y="250" width="150" height="60" as="geometry" />
        </mxCell>
        <mxCell id="mhduNKsisUSPCsZ8M5Ks-12" value="Sign in" style="rounded=0;whiteSpace=wrap;html=1;fontFamily=Times New Roman;fontSize=28;" parent="1" vertex="1">
          <mxGeometry x="67" y="340" width="150" height="60" as="geometry" />
        </mxCell>
        <mxCell id="PNNgbAHHAvgGDny7pBzx-1" value="Community Creation" style="rounded=0;whiteSpace=wrap;html=1;fontFamily=Times New Roman;fontSize=28;spacing=0;" vertex="1" parent="1">
          <mxGeometry x="260" y="250" width="150" height="60" as="geometry" />
        </mxCell>
        <mxCell id="PNNgbAHHAvgGDny7pBzx-2" value="Community Verification" style="rounded=0;whiteSpace=wrap;html=1;fontFamily=Times New Roman;fontSize=28;spacing=0;" vertex="1" parent="1">
          <mxGeometry x="260" y="340" width="150" height="60" as="geometry" />
        </mxCell>
        <mxCell id="PNNgbAHHAvgGDny7pBzx-3" value="Community Manage" style="rounded=0;whiteSpace=wrap;html=1;fontFamily=Times New Roman;fontSize=28;spacing=0;" vertex="1" parent="1">
          <mxGeometry x="260" y="430" width="150" height="60" as="geometry" />
        </mxCell>
        <mxCell id="nrga4CZs3PouBWdDomQ6-1" value="Membership Request" style="rounded=0;whiteSpace=wrap;html=1;fontFamily=Times New Roman;fontSize=28;spacing=0;" vertex="1" parent="1">
          <mxGeometry x="450" y="250" width="150" height="60" as="geometry" />
        </mxCell>
        <mxCell id="nrga4CZs3PouBWdDomQ6-2" value="Membership Approval" style="rounded=0;whiteSpace=wrap;html=1;fontFamily=Times New Roman;fontSize=28;spacing=0;" vertex="1" parent="1">
          <mxGeometry x="450" y="340" width="150" height="60" as="geometry" />
        </mxCell>
        <mxCell id="nrga4CZs3PouBWdDomQ6-3" value="Member Categorization" style="rounded=0;whiteSpace=wrap;html=1;fontFamily=Times New Roman;fontSize=28;spacing=0;" vertex="1" parent="1">
          <mxGeometry x="450" y="430" width="150" height="60" as="geometry" />
        </mxCell>
        <mxCell id="0Bb5Hiok8u6sg8s_Xbsu-1" value="Event Response" style="rounded=0;whiteSpace=wrap;html=1;fontFamily=Times New Roman;fontSize=28;" vertex="1" parent="1">
          <mxGeometry x="840" y="340" width="150" height="60" as="geometry" />
        </mxCell>
        <mxCell id="0Bb5Hiok8u6sg8s_Xbsu-2" value="Attendance" style="rounded=0;whiteSpace=wrap;html=1;fontFamily=Times New Roman;fontSize=28;" vertex="1" parent="1">
          <mxGeometry x="840" y="430" width="150" height="60" as="geometry" />
        </mxCell>
        <mxCell id="0Bb5Hiok8u6sg8s_Xbsu-3" value="Event Rating" style="rounded=0;whiteSpace=wrap;html=1;fontFamily=Times New Roman;fontSize=28;" vertex="1" parent="1">
          <mxGeometry x="840" y="520" width="150" height="60" as="geometry" />
        </mxCell>
        <mxCell id="0Bb5Hiok8u6sg8s_Xbsu-4" value="Event Creation" style="rounded=0;whiteSpace=wrap;html=1;fontFamily=Times New Roman;fontSize=28;" vertex="1" parent="1">
          <mxGeometry x="840" y="250" width="150" height="60" as="geometry" />
        </mxCell>
        <mxCell id="0Bb5Hiok8u6sg8s_Xbsu-22" style="edgeStyle=orthogonalEdgeStyle;rounded=0;orthogonalLoop=1;jettySize=auto;html=1;exitX=0.25;exitY=1;exitDx=0;exitDy=0;entryX=0;entryY=0.5;entryDx=0;entryDy=0;endArrow=none;endFill=0;" edge="1" parent="1" source="0Bb5Hiok8u6sg8s_Xbsu-5" target="0Bb5Hiok8u6sg8s_Xbsu-6">
          <mxGeometry relative="1" as="geometry" />
        </mxCell>
        <mxCell id="0Bb5Hiok8u6sg8s_Xbsu-23" style="edgeStyle=orthogonalEdgeStyle;rounded=0;orthogonalLoop=1;jettySize=auto;html=1;exitX=0.25;exitY=1;exitDx=0;exitDy=0;entryX=0;entryY=0.5;entryDx=0;entryDy=0;endArrow=none;endFill=0;" edge="1" parent="1" source="0Bb5Hiok8u6sg8s_Xbsu-5" target="0Bb5Hiok8u6sg8s_Xbsu-7">
          <mxGeometry relative="1" as="geometry" />
        </mxCell>
        <mxCell id="0Bb5Hiok8u6sg8s_Xbsu-5" value="Analytics" style="rounded=0;whiteSpace=wrap;html=1;fontFamily=Times New Roman;fontSize=28;" vertex="1" parent="1">
          <mxGeometry x="1160" y="160" width="150" height="60" as="geometry" />
        </mxCell>
        <mxCell id="0Bb5Hiok8u6sg8s_Xbsu-6" value="Community Analytics" style="rounded=0;whiteSpace=wrap;html=1;fontFamily=Times New Roman;fontSize=28;" vertex="1" parent="1">
          <mxGeometry x="1220" y="250" width="150" height="60" as="geometry" />
        </mxCell>
        <mxCell id="0Bb5Hiok8u6sg8s_Xbsu-7" value="Application Analytics" style="rounded=0;whiteSpace=wrap;html=1;fontFamily=Times New Roman;fontSize=28;" vertex="1" parent="1">
          <mxGeometry x="1220" y="340" width="150" height="60" as="geometry" />
        </mxCell>
      </root>
    </mxGraphModel>
  </diagram>
  <diagram id="P6ML-gzzxPCcvXgMYWqL" name="AccountLoginCreation">
    <mxGraphModel dx="2092" dy="742" grid="1" gridSize="10" guides="1" tooltips="1" connect="1" arrows="1" fold="1" page="1" pageScale="1" pageWidth="850" pageHeight="1100" math="0" shadow="0">
      <root>
        <mxCell id="0" />
        <mxCell id="1" parent="0" />
        <mxCell id="zfa8RuyDYXE6Uj7YRej_-1" style="edgeStyle=orthogonalEdgeStyle;rounded=0;orthogonalLoop=1;jettySize=auto;html=1;entryX=0.5;entryY=0;entryDx=0;entryDy=0;fontSize=18;" parent="1" source="zfa8RuyDYXE6Uj7YRej_-2" target="zfa8RuyDYXE6Uj7YRej_-4" edge="1">
          <mxGeometry relative="1" as="geometry" />
        </mxCell>
        <mxCell id="zfa8RuyDYXE6Uj7YRej_-2" value="" style="ellipse;fillColor=strokeColor;html=1;fontSize=18;" parent="1" vertex="1">
          <mxGeometry x="100" y="180" width="30" height="30" as="geometry" />
        </mxCell>
        <mxCell id="zfa8RuyDYXE6Uj7YRej_-3" style="edgeStyle=orthogonalEdgeStyle;rounded=0;orthogonalLoop=1;jettySize=auto;html=1;entryX=0.5;entryY=0;entryDx=0;entryDy=0;fontSize=18;" parent="1" source="zfa8RuyDYXE6Uj7YRej_-4" target="zfa8RuyDYXE6Uj7YRej_-11" edge="1">
          <mxGeometry relative="1" as="geometry" />
        </mxCell>
        <mxCell id="zfa8RuyDYXE6Uj7YRej_-4" value="Click Signup" style="rounded=1;whiteSpace=wrap;html=1;fontFamily=Times New Roman;fontSize=18;" parent="1" vertex="1">
          <mxGeometry x="55" y="250" width="120" height="40" as="geometry" />
        </mxCell>
        <mxCell id="zfa8RuyDYXE6Uj7YRej_-7" style="edgeStyle=orthogonalEdgeStyle;rounded=0;orthogonalLoop=1;jettySize=auto;html=1;entryX=0.292;entryY=1.022;entryDx=0;entryDy=0;fontSize=18;entryPerimeter=0;" parent="1" source="zfa8RuyDYXE6Uj7YRej_-8" target="zfa8RuyDYXE6Uj7YRej_-15" edge="1">
          <mxGeometry relative="1" as="geometry">
            <Array as="points">
              <mxPoint x="-20" y="960" />
            </Array>
          </mxGeometry>
        </mxCell>
        <mxCell id="rEZhHfA8l2Rmmn2u3vTP-13" style="edgeStyle=orthogonalEdgeStyle;rounded=0;orthogonalLoop=1;jettySize=auto;html=1;entryX=0.5;entryY=0;entryDx=0;entryDy=0;fontSize=18;" parent="1" source="zfa8RuyDYXE6Uj7YRej_-8" target="71CocnQJxzivlRqFFJQO-1" edge="1">
          <mxGeometry relative="1" as="geometry" />
        </mxCell>
        <mxCell id="zfa8RuyDYXE6Uj7YRej_-8" value="&lt;font face=&quot;Times New Roman&quot; style=&quot;font-size: 18px;&quot;&gt;Correct Credentials?&lt;/font&gt;" style="shape=rhombus;html=1;dashed=0;whiteSpace=wrap;perimeter=rhombusPerimeter;fontSize=18;" parent="1" vertex="1">
          <mxGeometry x="406" y="915" width="150" height="90" as="geometry" />
        </mxCell>
        <mxCell id="zfa8RuyDYXE6Uj7YRej_-9" style="edgeStyle=orthogonalEdgeStyle;rounded=0;orthogonalLoop=1;jettySize=auto;html=1;exitX=0;exitY=0.5;exitDx=0;exitDy=0;fontSize=18;entryX=0.5;entryY=0;entryDx=0;entryDy=0;" parent="1" source="zfa8RuyDYXE6Uj7YRej_-11" target="1r2kGqBn7IYzy8VhIbIT-1" edge="1">
          <mxGeometry relative="1" as="geometry" />
        </mxCell>
        <mxCell id="zfa8RuyDYXE6Uj7YRej_-10" style="edgeStyle=orthogonalEdgeStyle;rounded=0;orthogonalLoop=1;jettySize=auto;html=1;fontSize=18;" parent="1" source="zfa8RuyDYXE6Uj7YRej_-11" target="zfa8RuyDYXE6Uj7YRej_-13" edge="1">
          <mxGeometry relative="1" as="geometry" />
        </mxCell>
        <mxCell id="zfa8RuyDYXE6Uj7YRej_-11" value="&lt;font face=&quot;Times New Roman&quot; style=&quot;font-size: 18px;&quot;&gt;Existing User Account?&lt;/font&gt;" style="shape=rhombus;html=1;dashed=0;whiteSpace=wrap;perimeter=rhombusPerimeter;fontSize=18;" parent="1" vertex="1">
          <mxGeometry x="40" y="330" width="150" height="110" as="geometry" />
        </mxCell>
        <mxCell id="rEZhHfA8l2Rmmn2u3vTP-5" style="edgeStyle=orthogonalEdgeStyle;rounded=0;orthogonalLoop=1;jettySize=auto;html=1;entryX=0.5;entryY=0;entryDx=0;entryDy=0;fontSize=18;" parent="1" source="zfa8RuyDYXE6Uj7YRej_-13" target="rEZhHfA8l2Rmmn2u3vTP-3" edge="1">
          <mxGeometry relative="1" as="geometry">
            <Array as="points">
              <mxPoint x="480" y="420" />
              <mxPoint x="260" y="420" />
            </Array>
          </mxGeometry>
        </mxCell>
        <mxCell id="zfa8RuyDYXE6Uj7YRej_-13" value="Display Email Input" style="rounded=1;whiteSpace=wrap;html=1;fontFamily=Times New Roman;fontSize=18;" parent="1" vertex="1">
          <mxGeometry x="420" y="365" width="120" height="40" as="geometry" />
        </mxCell>
        <mxCell id="zfa8RuyDYXE6Uj7YRej_-14" style="edgeStyle=orthogonalEdgeStyle;rounded=0;orthogonalLoop=1;jettySize=auto;html=1;entryX=0;entryY=0.5;entryDx=0;entryDy=0;fontSize=18;" parent="1" source="zfa8RuyDYXE6Uj7YRej_-15" target="zfa8RuyDYXE6Uj7YRej_-17" edge="1">
          <mxGeometry relative="1" as="geometry">
            <Array as="points">
              <mxPoint x="30" y="875" />
            </Array>
          </mxGeometry>
        </mxCell>
        <mxCell id="zfa8RuyDYXE6Uj7YRej_-15" value="Input Login Credentials" style="rounded=1;whiteSpace=wrap;html=1;fontFamily=Times New Roman;fontSize=18;" parent="1" vertex="1">
          <mxGeometry x="-55" y="545" width="120" height="40" as="geometry" />
        </mxCell>
        <mxCell id="zfa8RuyDYXE6Uj7YRej_-16" style="edgeStyle=orthogonalEdgeStyle;rounded=0;orthogonalLoop=1;jettySize=auto;html=1;entryX=0.5;entryY=0;entryDx=0;entryDy=0;fontSize=18;" parent="1" source="zfa8RuyDYXE6Uj7YRej_-17" target="zfa8RuyDYXE6Uj7YRej_-8" edge="1">
          <mxGeometry relative="1" as="geometry">
            <Array as="points">
              <mxPoint x="480" y="915" />
            </Array>
          </mxGeometry>
        </mxCell>
        <mxCell id="zfa8RuyDYXE6Uj7YRej_-17" value="Verify Login Credentials" style="rounded=1;whiteSpace=wrap;html=1;fontFamily=Times New Roman;fontSize=18;" parent="1" vertex="1">
          <mxGeometry x="420" y="855" width="120" height="40" as="geometry" />
        </mxCell>
        <mxCell id="rEZhHfA8l2Rmmn2u3vTP-15" style="edgeStyle=orthogonalEdgeStyle;rounded=0;orthogonalLoop=1;jettySize=auto;html=1;fontSize=18;" parent="1" source="71CocnQJxzivlRqFFJQO-1" target="rEZhHfA8l2Rmmn2u3vTP-14" edge="1">
          <mxGeometry relative="1" as="geometry" />
        </mxCell>
        <mxCell id="71CocnQJxzivlRqFFJQO-1" value="Start User Session" style="rounded=1;whiteSpace=wrap;html=1;fontFamily=Times New Roman;fontSize=18;" parent="1" vertex="1">
          <mxGeometry x="420" y="1035" width="120" height="40" as="geometry" />
        </mxCell>
        <mxCell id="rEZhHfA8l2Rmmn2u3vTP-9" style="edgeStyle=orthogonalEdgeStyle;rounded=0;orthogonalLoop=1;jettySize=auto;html=1;entryX=1;entryY=0.5;entryDx=0;entryDy=0;fontSize=18;exitX=0.5;exitY=0;exitDx=0;exitDy=0;" parent="1" source="rEZhHfA8l2Rmmn2u3vTP-1" target="71CocnQJxzivlRqFFJQO-1" edge="1">
          <mxGeometry relative="1" as="geometry">
            <mxPoint x="840" y="715" as="targetPoint" />
            <Array as="points">
              <mxPoint x="700" y="700" />
              <mxPoint x="700" y="1055" />
            </Array>
          </mxGeometry>
        </mxCell>
        <mxCell id="auoaH9MSBja1sl5Rf-T7-11" style="edgeStyle=orthogonalEdgeStyle;rounded=0;orthogonalLoop=1;jettySize=auto;html=1;exitX=0.5;exitY=1;exitDx=0;exitDy=0;entryX=0;entryY=0.5;entryDx=0;entryDy=0;fontSize=18;" parent="1" source="rEZhHfA8l2Rmmn2u3vTP-1" target="auoaH9MSBja1sl5Rf-T7-10" edge="1">
          <mxGeometry relative="1" as="geometry">
            <Array as="points">
              <mxPoint x="480" y="810" />
              <mxPoint x="560" y="810" />
            </Array>
          </mxGeometry>
        </mxCell>
        <mxCell id="rEZhHfA8l2Rmmn2u3vTP-1" value="&lt;font face=&quot;Times New Roman&quot; style=&quot;font-size: 18px;&quot;&gt;Inputs are&lt;br style=&quot;font-size: 18px;&quot;&gt;complete and &lt;br style=&quot;font-size: 18px;&quot;&gt;valid?&lt;/font&gt;" style="shape=rhombus;html=1;dashed=0;whiteSpace=wrap;perimeter=rhombusPerimeter;fontSize=18;" parent="1" vertex="1">
          <mxGeometry x="390" y="700" width="140" height="110" as="geometry" />
        </mxCell>
        <mxCell id="MC0BF5pBzMwCb4mg9E89-8" style="edgeStyle=orthogonalEdgeStyle;rounded=0;orthogonalLoop=1;jettySize=auto;html=1;entryX=0;entryY=0.5;entryDx=0;entryDy=0;fontSize=18;" parent="1" source="rEZhHfA8l2Rmmn2u3vTP-3" target="MC0BF5pBzMwCb4mg9E89-1" edge="1">
          <mxGeometry relative="1" as="geometry" />
        </mxCell>
        <mxCell id="rEZhHfA8l2Rmmn2u3vTP-3" value="Input Email and Submit" style="rounded=1;whiteSpace=wrap;html=1;fontFamily=Times New Roman;fontSize=18;" parent="1" vertex="1">
          <mxGeometry x="200" y="440" width="120" height="40" as="geometry" />
        </mxCell>
        <mxCell id="rEZhHfA8l2Rmmn2u3vTP-7" style="edgeStyle=orthogonalEdgeStyle;rounded=0;orthogonalLoop=1;jettySize=auto;html=1;entryX=0;entryY=0.5;entryDx=0;entryDy=0;fontSize=18;" parent="1" source="rEZhHfA8l2Rmmn2u3vTP-4" target="rEZhHfA8l2Rmmn2u3vTP-1" edge="1">
          <mxGeometry relative="1" as="geometry" />
        </mxCell>
        <mxCell id="rEZhHfA8l2Rmmn2u3vTP-4" value="Submit Form" style="rounded=1;whiteSpace=wrap;html=1;fontFamily=Times New Roman;fontSize=18;" parent="1" vertex="1">
          <mxGeometry x="200" y="735" width="120" height="40" as="geometry" />
        </mxCell>
        <mxCell id="rEZhHfA8l2Rmmn2u3vTP-14" value="" style="ellipse;html=1;shape=endState;fillColor=strokeColor;fontSize=18;" parent="1" vertex="1">
          <mxGeometry x="465" y="1105" width="30" height="30" as="geometry" />
        </mxCell>
        <mxCell id="1nn6pnoj-Z0rmb0jJqxz-1" value="False" style="text;html=1;strokeColor=none;fillColor=none;align=center;verticalAlign=middle;whiteSpace=wrap;rounded=0;fontFamily=Times New Roman;fontSize=18;" parent="1" vertex="1">
          <mxGeometry x="190" y="360" width="60" height="30" as="geometry" />
        </mxCell>
        <mxCell id="1nn6pnoj-Z0rmb0jJqxz-2" value="True" style="text;html=1;strokeColor=none;fillColor=none;align=center;verticalAlign=middle;whiteSpace=wrap;rounded=0;fontFamily=Times New Roman;fontSize=18;" parent="1" vertex="1">
          <mxGeometry x="-5" y="360" width="60" height="30" as="geometry" />
        </mxCell>
        <mxCell id="1nn6pnoj-Z0rmb0jJqxz-5" value="True" style="text;html=1;strokeColor=none;fillColor=none;align=center;verticalAlign=middle;whiteSpace=wrap;rounded=0;fontFamily=Times New Roman;fontSize=18;" parent="1" vertex="1">
          <mxGeometry x="510" y="700" width="60" height="30" as="geometry" />
        </mxCell>
        <mxCell id="1nn6pnoj-Z0rmb0jJqxz-6" value="True" style="text;html=1;strokeColor=none;fillColor=none;align=center;verticalAlign=middle;whiteSpace=wrap;rounded=0;fontFamily=Times New Roman;fontSize=18;" parent="1" vertex="1">
          <mxGeometry x="470" y="1005" width="60" height="30" as="geometry" />
        </mxCell>
        <mxCell id="1nn6pnoj-Z0rmb0jJqxz-7" value="False" style="text;html=1;strokeColor=none;fillColor=none;align=center;verticalAlign=middle;whiteSpace=wrap;rounded=0;fontFamily=Times New Roman;fontSize=18;" parent="1" vertex="1">
          <mxGeometry x="520" y="527.5" width="60" height="30" as="geometry" />
        </mxCell>
        <mxCell id="MC0BF5pBzMwCb4mg9E89-9" style="edgeStyle=orthogonalEdgeStyle;rounded=0;orthogonalLoop=1;jettySize=auto;html=1;entryX=0.5;entryY=0;entryDx=0;entryDy=0;fontSize=18;" parent="1" source="MC0BF5pBzMwCb4mg9E89-1" target="MC0BF5pBzMwCb4mg9E89-7" edge="1">
          <mxGeometry relative="1" as="geometry">
            <Array as="points">
              <mxPoint x="480" y="490" />
              <mxPoint x="260" y="490" />
            </Array>
          </mxGeometry>
        </mxCell>
        <mxCell id="MC0BF5pBzMwCb4mg9E89-1" value="Email Verification Code" style="rounded=1;whiteSpace=wrap;html=1;fontFamily=Times New Roman;fontSize=18;" parent="1" vertex="1">
          <mxGeometry x="400" y="440" width="150" height="40" as="geometry" />
        </mxCell>
        <mxCell id="auoaH9MSBja1sl5Rf-T7-1" style="edgeStyle=orthogonalEdgeStyle;rounded=0;orthogonalLoop=1;jettySize=auto;html=1;exitX=0.5;exitY=1;exitDx=0;exitDy=0;entryX=0.5;entryY=0;entryDx=0;entryDy=0;fontSize=18;" parent="1" source="MC0BF5pBzMwCb4mg9E89-2" target="MC0BF5pBzMwCb4mg9E89-3" edge="1">
          <mxGeometry relative="1" as="geometry">
            <mxPoint x="480" y="620" as="sourcePoint" />
          </mxGeometry>
        </mxCell>
        <mxCell id="auoaH9MSBja1sl5Rf-T7-4" style="edgeStyle=orthogonalEdgeStyle;rounded=0;orthogonalLoop=1;jettySize=auto;html=1;exitX=1;exitY=0.5;exitDx=0;exitDy=0;entryX=0;entryY=0.5;entryDx=0;entryDy=0;fontSize=18;" parent="1" source="MC0BF5pBzMwCb4mg9E89-2" target="auoaH9MSBja1sl5Rf-T7-3" edge="1">
          <mxGeometry relative="1" as="geometry" />
        </mxCell>
        <mxCell id="MC0BF5pBzMwCb4mg9E89-2" value="&lt;font face=&quot;Times New Roman&quot; style=&quot;font-size: 18px;&quot;&gt;Correct Verification Code?&lt;/font&gt;" style="shape=rhombus;html=1;dashed=0;whiteSpace=wrap;perimeter=rhombusPerimeter;fontSize=18;" parent="1" vertex="1">
          <mxGeometry x="420" y="520" width="120" height="90" as="geometry" />
        </mxCell>
        <mxCell id="auoaH9MSBja1sl5Rf-T7-7" style="edgeStyle=orthogonalEdgeStyle;rounded=0;orthogonalLoop=1;jettySize=auto;html=1;entryX=1;entryY=0.5;entryDx=0;entryDy=0;fontSize=18;" parent="1" source="MC0BF5pBzMwCb4mg9E89-3" target="auoaH9MSBja1sl5Rf-T7-6" edge="1">
          <mxGeometry relative="1" as="geometry" />
        </mxCell>
        <mxCell id="MC0BF5pBzMwCb4mg9E89-3" value="Display Full Sign-up Form" style="rounded=1;whiteSpace=wrap;html=1;fontFamily=Times New Roman;fontSize=18;" parent="1" vertex="1">
          <mxGeometry x="420" y="640" width="120" height="40" as="geometry" />
        </mxCell>
        <mxCell id="MC0BF5pBzMwCb4mg9E89-10" style="edgeStyle=orthogonalEdgeStyle;rounded=0;orthogonalLoop=1;jettySize=auto;html=1;fontSize=18;" parent="1" source="MC0BF5pBzMwCb4mg9E89-7" target="MC0BF5pBzMwCb4mg9E89-2" edge="1">
          <mxGeometry relative="1" as="geometry" />
        </mxCell>
        <mxCell id="MC0BF5pBzMwCb4mg9E89-7" value="Input Verification Code" style="rounded=1;whiteSpace=wrap;html=1;fontFamily=Times New Roman;fontSize=18;" parent="1" vertex="1">
          <mxGeometry x="200" y="527.5" width="120" height="75" as="geometry" />
        </mxCell>
        <mxCell id="auoaH9MSBja1sl5Rf-T7-2" value="True" style="text;html=1;strokeColor=none;fillColor=none;align=center;verticalAlign=middle;whiteSpace=wrap;rounded=0;fontFamily=Times New Roman;fontSize=18;" parent="1" vertex="1">
          <mxGeometry x="470" y="602.5" width="60" height="30" as="geometry" />
        </mxCell>
        <mxCell id="auoaH9MSBja1sl5Rf-T7-3" value="Display Error Message" style="rounded=1;whiteSpace=wrap;html=1;fontFamily=Times New Roman;fontSize=18;" parent="1" vertex="1">
          <mxGeometry x="580" y="545" width="120" height="40" as="geometry" />
        </mxCell>
        <mxCell id="auoaH9MSBja1sl5Rf-T7-5" value="False" style="text;html=1;strokeColor=none;fillColor=none;align=center;verticalAlign=middle;whiteSpace=wrap;rounded=0;fontFamily=Times New Roman;fontSize=18;" parent="1" vertex="1">
          <mxGeometry x="370" y="930" width="60" height="30" as="geometry" />
        </mxCell>
        <mxCell id="auoaH9MSBja1sl5Rf-T7-8" style="edgeStyle=orthogonalEdgeStyle;rounded=0;orthogonalLoop=1;jettySize=auto;html=1;fontSize=18;" parent="1" source="auoaH9MSBja1sl5Rf-T7-6" target="rEZhHfA8l2Rmmn2u3vTP-4" edge="1">
          <mxGeometry relative="1" as="geometry" />
        </mxCell>
        <mxCell id="auoaH9MSBja1sl5Rf-T7-6" value="Input User Details" style="rounded=1;whiteSpace=wrap;html=1;fontFamily=Times New Roman;fontSize=18;" parent="1" vertex="1">
          <mxGeometry x="200" y="640" width="120" height="40" as="geometry" />
        </mxCell>
        <mxCell id="auoaH9MSBja1sl5Rf-T7-9" value="False" style="text;html=1;strokeColor=none;fillColor=none;align=center;verticalAlign=middle;whiteSpace=wrap;rounded=0;fontFamily=Times New Roman;fontSize=18;" parent="1" vertex="1">
          <mxGeometry x="490" y="780" width="60" height="30" as="geometry" />
        </mxCell>
        <mxCell id="auoaH9MSBja1sl5Rf-T7-10" value="Display Error Message" style="rounded=1;whiteSpace=wrap;html=1;fontFamily=Times New Roman;fontSize=18;" parent="1" vertex="1">
          <mxGeometry x="560" y="790" width="120" height="40" as="geometry" />
        </mxCell>
        <mxCell id="1r2kGqBn7IYzy8VhIbIT-1" value="Click Signin" style="rounded=1;whiteSpace=wrap;html=1;fontFamily=Times New Roman;fontSize=18;" parent="1" vertex="1">
          <mxGeometry x="-55" y="440" width="120" height="40" as="geometry" />
        </mxCell>
        <mxCell id="1r2kGqBn7IYzy8VhIbIT-3" style="edgeStyle=orthogonalEdgeStyle;rounded=0;orthogonalLoop=1;jettySize=auto;html=1;exitX=0.5;exitY=1;exitDx=0;exitDy=0;fontSize=18;entryX=0.5;entryY=0;entryDx=0;entryDy=0;" parent="1" source="1r2kGqBn7IYzy8VhIbIT-1" target="zfa8RuyDYXE6Uj7YRej_-15" edge="1">
          <mxGeometry relative="1" as="geometry">
            <mxPoint x="50" y="395" as="sourcePoint" />
            <mxPoint x="5" y="505" as="targetPoint" />
          </mxGeometry>
        </mxCell>
        <mxCell id="1r2kGqBn7IYzy8VhIbIT-5" style="edgeStyle=orthogonalEdgeStyle;rounded=0;orthogonalLoop=1;jettySize=auto;html=1;exitX=0.5;exitY=0;exitDx=0;exitDy=0;fontSize=18;entryX=1;entryY=0.25;entryDx=0;entryDy=0;" parent="1" source="auoaH9MSBja1sl5Rf-T7-3" target="MC0BF5pBzMwCb4mg9E89-7" edge="1">
          <mxGeometry relative="1" as="geometry">
            <mxPoint x="550" y="575" as="sourcePoint" />
            <mxPoint x="340" y="510" as="targetPoint" />
            <Array as="points">
              <mxPoint x="640" y="510" />
              <mxPoint x="370" y="510" />
              <mxPoint x="370" y="546" />
            </Array>
          </mxGeometry>
        </mxCell>
        <mxCell id="1r2kGqBn7IYzy8VhIbIT-6" style="edgeStyle=orthogonalEdgeStyle;rounded=0;orthogonalLoop=1;jettySize=auto;html=1;exitX=0.5;exitY=1;exitDx=0;exitDy=0;entryX=0;entryY=0.5;entryDx=0;entryDy=0;fontSize=18;" parent="1" source="auoaH9MSBja1sl5Rf-T7-10" target="auoaH9MSBja1sl5Rf-T7-6" edge="1">
          <mxGeometry relative="1" as="geometry">
            <Array as="points">
              <mxPoint x="620" y="840" />
              <mxPoint x="150" y="840" />
              <mxPoint x="150" y="660" />
            </Array>
            <mxPoint x="470" y="820" as="sourcePoint" />
            <mxPoint x="570" y="820" as="targetPoint" />
          </mxGeometry>
        </mxCell>
      </root>
    </mxGraphModel>
  </diagram>
  <diagram id="XpMsKM9t6CuNrENa_W6s" name="CommunityCreation">
    <mxGraphModel dx="1242" dy="742" grid="1" gridSize="10" guides="1" tooltips="1" connect="1" arrows="1" fold="1" page="1" pageScale="1" pageWidth="850" pageHeight="1100" math="0" shadow="0">
      <root>
        <mxCell id="0" />
        <mxCell id="1" parent="0" />
        <mxCell id="il3nFOsStOa02l0FxwH2-8" style="edgeStyle=orthogonalEdgeStyle;rounded=0;orthogonalLoop=1;jettySize=auto;html=1;entryX=0.5;entryY=0;entryDx=0;entryDy=0;fontSize=18;" parent="1" source="vu4avHTPOL8mqcEe2YVq-1" target="il3nFOsStOa02l0FxwH2-1" edge="1">
          <mxGeometry relative="1" as="geometry" />
        </mxCell>
        <mxCell id="vu4avHTPOL8mqcEe2YVq-1" value="" style="ellipse;fillColor=strokeColor;html=1;fontSize=18;" parent="1" vertex="1">
          <mxGeometry x="100" y="180" width="30" height="30" as="geometry" />
        </mxCell>
        <mxCell id="il3nFOsStOa02l0FxwH2-1" value="Click Create Community" style="rounded=1;whiteSpace=wrap;html=1;fontFamily=Times New Roman;fontSize=18;" parent="1" vertex="1">
          <mxGeometry x="55" y="250" width="120" height="60" as="geometry" />
        </mxCell>
        <mxCell id="il3nFOsStOa02l0FxwH2-28" style="edgeStyle=orthogonalEdgeStyle;rounded=0;orthogonalLoop=1;jettySize=auto;html=1;fontSize=18;entryX=0.5;entryY=0;entryDx=0;entryDy=0;exitX=0.5;exitY=1;exitDx=0;exitDy=0;" parent="1" source="il3nFOsStOa02l0FxwH2-3" target="il3nFOsStOa02l0FxwH2-24" edge="1">
          <mxGeometry relative="1" as="geometry">
            <mxPoint x="494.97" y="280" as="sourcePoint" />
            <mxPoint x="69.97" y="435.0322580645161" as="targetPoint" />
            <Array as="points">
              <mxPoint x="480" y="340" />
              <mxPoint x="115" y="340" />
            </Array>
          </mxGeometry>
        </mxCell>
        <mxCell id="il3nFOsStOa02l0FxwH2-3" value="Display Create Community Form" style="rounded=1;whiteSpace=wrap;html=1;fontFamily=Times New Roman;fontSize=18;" parent="1" vertex="1">
          <mxGeometry x="385" y="250" width="120" height="60" as="geometry" />
        </mxCell>
        <mxCell id="il3nFOsStOa02l0FxwH2-24" value="Input Community Information" style="rounded=1;whiteSpace=wrap;html=1;fontFamily=Times New Roman;fontSize=18;" parent="1" vertex="1">
          <mxGeometry x="55" y="390" width="120" height="70" as="geometry" />
        </mxCell>
        <mxCell id="il3nFOsStOa02l0FxwH2-40" style="edgeStyle=orthogonalEdgeStyle;rounded=0;orthogonalLoop=1;jettySize=auto;html=1;exitX=1;exitY=0.5;exitDx=0;exitDy=0;entryX=0;entryY=0.5;entryDx=0;entryDy=0;fontSize=18;" parent="1" source="il3nFOsStOa02l0FxwH2-24" target="il3nFOsStOa02l0FxwH2-32" edge="1">
          <mxGeometry relative="1" as="geometry">
            <mxPoint x="415" y="480" as="sourcePoint" />
            <mxPoint x="85" y="500" as="targetPoint" />
          </mxGeometry>
        </mxCell>
        <mxCell id="il3nFOsStOa02l0FxwH2-49" style="edgeStyle=orthogonalEdgeStyle;rounded=0;orthogonalLoop=1;jettySize=auto;html=1;entryX=0;entryY=0.5;entryDx=0;entryDy=0;fontSize=18;exitX=1;exitY=0.5;exitDx=0;exitDy=0;" parent="1" source="il3nFOsStOa02l0FxwH2-32" target="il3nFOsStOa02l0FxwH2-44" edge="1">
          <mxGeometry relative="1" as="geometry">
            <mxPoint x="524.94" y="457.5" as="targetPoint" />
            <Array as="points">
              <mxPoint x="565" y="425" />
              <mxPoint x="565" y="425" />
            </Array>
            <mxPoint x="524.9988235294118" y="427.4592760180992" as="sourcePoint" />
          </mxGeometry>
        </mxCell>
        <mxCell id="il3nFOsStOa02l0FxwH2-32" value="&lt;font face=&quot;Times New Roman&quot; style=&quot;font-size: 18px;&quot;&gt;Inputs are &lt;br style=&quot;font-size: 18px;&quot;&gt;complete and &lt;br style=&quot;font-size: 18px;&quot;&gt;valid?&lt;/font&gt;" style="shape=rhombus;html=1;dashed=0;whiteSpace=wrap;perimeter=rhombusPerimeter;fontSize=18;" parent="1" vertex="1">
          <mxGeometry x="380" y="365" width="130" height="120" as="geometry" />
        </mxCell>
        <mxCell id="il3nFOsStOa02l0FxwH2-44" value="Send Community Verification Request to Authorizer" style="rounded=1;whiteSpace=wrap;html=1;fontFamily=Times New Roman;fontSize=18;" parent="1" vertex="1">
          <mxGeometry x="575" y="382.5" width="155" height="85" as="geometry" />
        </mxCell>
        <mxCell id="il3nFOsStOa02l0FxwH2-48" value="" style="ellipse;html=1;shape=endState;fillColor=strokeColor;fontSize=18;" parent="1" vertex="1">
          <mxGeometry x="667" y="810" width="30" height="30" as="geometry" />
        </mxCell>
        <mxCell id="sX7gX0yFah7F4Cw-Nj3q-7" value="Yes" style="text;html=1;strokeColor=none;fillColor=none;align=center;verticalAlign=middle;whiteSpace=wrap;rounded=0;fontFamily=Times New Roman;fontSize=18;" parent="1" vertex="1">
          <mxGeometry x="510" y="399" width="60" height="30" as="geometry" />
        </mxCell>
        <mxCell id="sX7gX0yFah7F4Cw-Nj3q-8" value="No" style="text;html=1;strokeColor=none;fillColor=none;align=center;verticalAlign=middle;whiteSpace=wrap;rounded=0;fontFamily=Times New Roman;fontSize=18;" parent="1" vertex="1">
          <mxGeometry x="395" y="497.5" width="60" height="30" as="geometry" />
        </mxCell>
        <mxCell id="bqQfj6Ue35XCiFO7o808-1" value="" style="endArrow=classic;html=1;rounded=0;exitX=1;exitY=0.5;exitDx=0;exitDy=0;entryX=0;entryY=0.5;entryDx=0;entryDy=0;" parent="1" source="il3nFOsStOa02l0FxwH2-1" target="il3nFOsStOa02l0FxwH2-3" edge="1">
          <mxGeometry width="50" height="50" relative="1" as="geometry">
            <mxPoint x="300" y="370" as="sourcePoint" />
            <mxPoint x="350" y="320" as="targetPoint" />
          </mxGeometry>
        </mxCell>
        <mxCell id="GnArB6VIf1PJ0D6VBWKJ-1" style="edgeStyle=orthogonalEdgeStyle;rounded=0;orthogonalLoop=1;jettySize=auto;html=1;exitX=0.5;exitY=1;exitDx=0;exitDy=0;fontSize=18;" parent="1" source="il3nFOsStOa02l0FxwH2-32" target="GnArB6VIf1PJ0D6VBWKJ-2" edge="1">
          <mxGeometry relative="1" as="geometry">
            <mxPoint x="150" y="485" as="sourcePoint" />
            <mxPoint x="390" y="485" as="targetPoint" />
          </mxGeometry>
        </mxCell>
        <mxCell id="GnArB6VIf1PJ0D6VBWKJ-2" value="Display Error Message" style="rounded=1;whiteSpace=wrap;html=1;fontFamily=Times New Roman;fontSize=18;" parent="1" vertex="1">
          <mxGeometry x="385" y="540.25" width="120" height="55" as="geometry" />
        </mxCell>
        <mxCell id="GnArB6VIf1PJ0D6VBWKJ-3" style="edgeStyle=orthogonalEdgeStyle;rounded=0;orthogonalLoop=1;jettySize=auto;html=1;exitX=0;exitY=0.5;exitDx=0;exitDy=0;entryX=0.5;entryY=1;entryDx=0;entryDy=0;fontSize=18;" parent="1" source="GnArB6VIf1PJ0D6VBWKJ-2" target="il3nFOsStOa02l0FxwH2-24" edge="1">
          <mxGeometry relative="1" as="geometry">
            <mxPoint x="175" y="510" as="sourcePoint" />
            <mxPoint x="415" y="510" as="targetPoint" />
          </mxGeometry>
        </mxCell>
        <mxCell id="VdYGRQPm5ufY1qI_Mipg-1" value="Select Community Verification Request" style="rounded=1;whiteSpace=wrap;html=1;fontFamily=Times New Roman;fontSize=16;" parent="1" vertex="1">
          <mxGeometry x="970" y="395" width="130" height="60" as="geometry" />
        </mxCell>
        <mxCell id="VdYGRQPm5ufY1qI_Mipg-2" style="edgeStyle=orthogonalEdgeStyle;rounded=0;orthogonalLoop=1;jettySize=auto;html=1;entryX=0;entryY=0.5;entryDx=0;entryDy=0;fontSize=18;exitX=1;exitY=0.5;exitDx=0;exitDy=0;" parent="1" source="il3nFOsStOa02l0FxwH2-44" target="PykiEnSlGLaEmBBpM60M-1" edge="1">
          <mxGeometry relative="1" as="geometry">
            <mxPoint x="760" y="440" as="sourcePoint" />
            <mxPoint x="895" y="424.52" as="targetPoint" />
          </mxGeometry>
        </mxCell>
        <mxCell id="hE4Rq7DMf4BQQpdzoDEf-1" value="&lt;font face=&quot;Times New Roman&quot; style=&quot;font-size: 16px;&quot;&gt;Approve request?&lt;/font&gt;" style="shape=rhombus;html=1;dashed=0;whiteSpace=wrap;perimeter=rhombusPerimeter;fontSize=16;" parent="1" vertex="1">
          <mxGeometry x="985" y="497.5" width="100" height="90" as="geometry" />
        </mxCell>
        <mxCell id="hE4Rq7DMf4BQQpdzoDEf-2" style="edgeStyle=orthogonalEdgeStyle;rounded=0;orthogonalLoop=1;jettySize=auto;html=1;entryX=0.5;entryY=0;entryDx=0;entryDy=0;fontSize=18;exitX=0.5;exitY=1;exitDx=0;exitDy=0;" parent="1" source="VdYGRQPm5ufY1qI_Mipg-1" target="hE4Rq7DMf4BQQpdzoDEf-1" edge="1">
          <mxGeometry relative="1" as="geometry">
            <mxPoint x="825" y="494.72" as="sourcePoint" />
            <mxPoint x="985" y="494.72" as="targetPoint" />
          </mxGeometry>
        </mxCell>
        <mxCell id="GIL89iu-XbSo95VqSB1c-1" value="Change Status to Denied" style="rounded=1;whiteSpace=wrap;html=1;fontFamily=Times New Roman;fontSize=16;" parent="1" vertex="1">
          <mxGeometry x="727" y="587.5" width="120" height="40" as="geometry" />
        </mxCell>
        <mxCell id="GIL89iu-XbSo95VqSB1c-2" value="Change Status to Approved" style="rounded=1;whiteSpace=wrap;html=1;fontFamily=Times New Roman;fontSize=16;" parent="1" vertex="1">
          <mxGeometry x="580" y="522.5" width="120" height="40" as="geometry" />
        </mxCell>
        <mxCell id="oQWxZYw-TJjhIE41fNGd-2" style="edgeStyle=orthogonalEdgeStyle;rounded=0;orthogonalLoop=1;jettySize=auto;html=1;exitX=0.5;exitY=1;exitDx=0;exitDy=0;entryX=0.5;entryY=0;entryDx=0;entryDy=0;" edge="1" parent="1" source="GIL89iu-XbSo95VqSB1c-3" target="il3nFOsStOa02l0FxwH2-48">
          <mxGeometry relative="1" as="geometry">
            <mxPoint x="682" y="810" as="targetPoint" />
          </mxGeometry>
        </mxCell>
        <mxCell id="GIL89iu-XbSo95VqSB1c-3" value="Notify Community Creator of Community Status" style="rounded=1;whiteSpace=wrap;html=1;fontFamily=Times New Roman;fontSize=16;" parent="1" vertex="1">
          <mxGeometry x="597" y="700" width="170" height="70" as="geometry" />
        </mxCell>
        <mxCell id="GIL89iu-XbSo95VqSB1c-6" style="edgeStyle=orthogonalEdgeStyle;rounded=0;orthogonalLoop=1;jettySize=auto;html=1;entryX=1;entryY=0.5;entryDx=0;entryDy=0;fontSize=18;exitX=0;exitY=0.5;exitDx=0;exitDy=0;" parent="1" source="hE4Rq7DMf4BQQpdzoDEf-1" target="GIL89iu-XbSo95VqSB1c-2" edge="1">
          <mxGeometry relative="1" as="geometry">
            <mxPoint x="830" y="527" as="sourcePoint" />
            <mxPoint x="830" y="570" as="targetPoint" />
          </mxGeometry>
        </mxCell>
        <mxCell id="GIL89iu-XbSo95VqSB1c-7" style="edgeStyle=orthogonalEdgeStyle;rounded=0;orthogonalLoop=1;jettySize=auto;html=1;entryX=1;entryY=0.5;entryDx=0;entryDy=0;fontSize=18;exitX=0.5;exitY=1;exitDx=0;exitDy=0;" parent="1" source="hE4Rq7DMf4BQQpdzoDEf-1" target="GIL89iu-XbSo95VqSB1c-1" edge="1">
          <mxGeometry relative="1" as="geometry">
            <mxPoint x="975" y="475" as="sourcePoint" />
            <mxPoint x="975" y="518" as="targetPoint" />
            <Array as="points">
              <mxPoint x="1035" y="608" />
            </Array>
          </mxGeometry>
        </mxCell>
        <mxCell id="GIL89iu-XbSo95VqSB1c-8" style="edgeStyle=orthogonalEdgeStyle;rounded=0;orthogonalLoop=1;jettySize=auto;html=1;fontSize=18;exitX=0.5;exitY=1;exitDx=0;exitDy=0;entryX=0.25;entryY=0;entryDx=0;entryDy=0;" parent="1" source="GIL89iu-XbSo95VqSB1c-5" target="GIL89iu-XbSo95VqSB1c-3" edge="1">
          <mxGeometry relative="1" as="geometry">
            <mxPoint x="777" y="660" as="sourcePoint" />
            <mxPoint x="777" y="702" as="targetPoint" />
          </mxGeometry>
        </mxCell>
        <mxCell id="GIL89iu-XbSo95VqSB1c-9" style="edgeStyle=orthogonalEdgeStyle;rounded=0;orthogonalLoop=1;jettySize=auto;html=1;entryX=0.75;entryY=0;entryDx=0;entryDy=0;fontSize=18;exitX=0.5;exitY=1;exitDx=0;exitDy=0;" parent="1" source="GIL89iu-XbSo95VqSB1c-1" target="GIL89iu-XbSo95VqSB1c-3" edge="1">
          <mxGeometry relative="1" as="geometry">
            <mxPoint x="1057" y="708" as="sourcePoint" />
            <mxPoint x="1057" y="750" as="targetPoint" />
            <Array as="points">
              <mxPoint x="787" y="670" />
              <mxPoint x="725" y="670" />
            </Array>
          </mxGeometry>
        </mxCell>
        <mxCell id="PykiEnSlGLaEmBBpM60M-1" value="Review submitted community details, submitted photos, and documents" style="rounded=1;whiteSpace=wrap;html=1;fontFamily=Times New Roman;fontSize=16;" parent="1" vertex="1">
          <mxGeometry x="970" y="240" width="130" height="80" as="geometry" />
        </mxCell>
        <mxCell id="PykiEnSlGLaEmBBpM60M-2" style="edgeStyle=orthogonalEdgeStyle;rounded=0;orthogonalLoop=1;jettySize=auto;html=1;fontSize=18;exitX=0.5;exitY=1;exitDx=0;exitDy=0;entryX=0.5;entryY=0;entryDx=0;entryDy=0;" parent="1" source="PykiEnSlGLaEmBBpM60M-1" target="VdYGRQPm5ufY1qI_Mipg-1" edge="1">
          <mxGeometry relative="1" as="geometry">
            <mxPoint x="1045" y="465" as="sourcePoint" />
            <mxPoint x="1020" y="380" as="targetPoint" />
          </mxGeometry>
        </mxCell>
        <mxCell id="PykiEnSlGLaEmBBpM60M-3" value="Yes" style="text;html=1;strokeColor=none;fillColor=none;align=center;verticalAlign=middle;whiteSpace=wrap;rounded=0;fontFamily=Times New Roman;fontSize=16;" parent="1" vertex="1">
          <mxGeometry x="797" y="515" width="60" height="30" as="geometry" />
        </mxCell>
        <mxCell id="PykiEnSlGLaEmBBpM60M-4" value="No" style="text;html=1;strokeColor=none;fillColor=none;align=center;verticalAlign=middle;whiteSpace=wrap;rounded=0;fontFamily=Times New Roman;fontSize=16;" parent="1" vertex="1">
          <mxGeometry x="950" y="580" width="60" height="30" as="geometry" />
        </mxCell>
        <mxCell id="oQWxZYw-TJjhIE41fNGd-1" value="" style="edgeStyle=orthogonalEdgeStyle;rounded=0;orthogonalLoop=1;jettySize=auto;html=1;fontSize=18;exitX=0.5;exitY=1;exitDx=0;exitDy=0;entryX=0.5;entryY=0;entryDx=0;entryDy=0;" edge="1" parent="1" source="GIL89iu-XbSo95VqSB1c-2" target="GIL89iu-XbSo95VqSB1c-5">
          <mxGeometry relative="1" as="geometry">
            <mxPoint x="640" y="563" as="sourcePoint" />
            <mxPoint x="640" y="860" as="targetPoint" />
          </mxGeometry>
        </mxCell>
        <mxCell id="GIL89iu-XbSo95VqSB1c-5" value="Add Community Management modules to user account" style="rounded=1;whiteSpace=wrap;html=1;fontFamily=Times New Roman;fontSize=16;" parent="1" vertex="1">
          <mxGeometry x="575" y="587.5" width="130" height="77" as="geometry" />
        </mxCell>
      </root>
    </mxGraphModel>
  </diagram>
  <diagram id="3D-uzzsV1KDb9veG-uyA" name="MembershipRequest">
    <mxGraphModel dx="1553" dy="928" grid="1" gridSize="10" guides="1" tooltips="1" connect="1" arrows="1" fold="1" page="1" pageScale="1" pageWidth="850" pageHeight="1100" math="0" shadow="0">
      <root>
        <mxCell id="0" />
        <mxCell id="1" parent="0" />
        <mxCell id="5seAdF8xCDBSRyXKFid_-1" style="edgeStyle=orthogonalEdgeStyle;rounded=0;orthogonalLoop=1;jettySize=auto;html=1;fontSize=15;" parent="1" source="FpdxR-WDlv6mi2qj41km-1" target="FpdxR-WDlv6mi2qj41km-2" edge="1">
          <mxGeometry relative="1" as="geometry" />
        </mxCell>
        <mxCell id="FpdxR-WDlv6mi2qj41km-1" value="" style="ellipse;fillColor=strokeColor;html=1;fontSize=15;" parent="1" vertex="1">
          <mxGeometry x="135" y="80" width="30" height="30" as="geometry" />
        </mxCell>
        <mxCell id="5seAdF8xCDBSRyXKFid_-2" style="edgeStyle=orthogonalEdgeStyle;rounded=0;orthogonalLoop=1;jettySize=auto;html=1;fontSize=15;" parent="1" source="FpdxR-WDlv6mi2qj41km-2" target="FpdxR-WDlv6mi2qj41km-7" edge="1">
          <mxGeometry relative="1" as="geometry" />
        </mxCell>
        <mxCell id="FpdxR-WDlv6mi2qj41km-2" value="View Community Page" style="rounded=1;whiteSpace=wrap;html=1;fontFamily=Times New Roman;fontSize=15;" parent="1" vertex="1">
          <mxGeometry x="90" y="130" width="120" height="60" as="geometry" />
        </mxCell>
        <mxCell id="C_hsA70x_JukYjM8tFtG-26" style="edgeStyle=orthogonalEdgeStyle;rounded=0;orthogonalLoop=1;jettySize=auto;html=1;exitX=1;exitY=0.5;exitDx=0;exitDy=0;entryX=0;entryY=0.5;entryDx=0;entryDy=0;fontSize=15;" parent="1" source="FpdxR-WDlv6mi2qj41km-7" target="C_hsA70x_JukYjM8tFtG-1" edge="1">
          <mxGeometry relative="1" as="geometry" />
        </mxCell>
        <mxCell id="FpdxR-WDlv6mi2qj41km-7" value="Click Join Community Button" style="rounded=1;whiteSpace=wrap;html=1;fontFamily=Times New Roman;fontSize=15;" parent="1" vertex="1">
          <mxGeometry x="90" y="220" width="120" height="60" as="geometry" />
        </mxCell>
        <mxCell id="C_hsA70x_JukYjM8tFtG-13" style="edgeStyle=orthogonalEdgeStyle;rounded=0;orthogonalLoop=1;jettySize=auto;html=1;entryX=0.5;entryY=0;entryDx=0;entryDy=0;exitX=0.5;exitY=0;exitDx=0;exitDy=0;fontSize=15;" parent="1" source="C_hsA70x_JukYjM8tFtG-1" target="C_hsA70x_JukYjM8tFtG-11" edge="1">
          <mxGeometry relative="1" as="geometry">
            <Array as="points">
              <mxPoint x="330" y="160" />
              <mxPoint x="725" y="160" />
            </Array>
            <mxPoint x="327" y="190" as="sourcePoint" />
            <mxPoint x="410" y="85" as="targetPoint" />
          </mxGeometry>
        </mxCell>
        <mxCell id="C_hsA70x_JukYjM8tFtG-14" style="edgeStyle=orthogonalEdgeStyle;rounded=0;orthogonalLoop=1;jettySize=auto;html=1;entryX=0;entryY=0.5;entryDx=0;entryDy=0;fontSize=15;exitX=1;exitY=0.5;exitDx=0;exitDy=0;" parent="1" source="C_hsA70x_JukYjM8tFtG-5" target="C_hsA70x_JukYjM8tFtG-6" edge="1">
          <mxGeometry relative="1" as="geometry">
            <Array as="points">
              <mxPoint x="745" y="491" />
              <mxPoint x="790" y="492" />
            </Array>
            <mxPoint x="744.9973684210524" y="495.0049122807018" as="sourcePoint" />
            <mxPoint x="835.05" y="640.04" as="targetPoint" />
          </mxGeometry>
        </mxCell>
        <mxCell id="C_hsA70x_JukYjM8tFtG-1" value="&lt;font face=&quot;Times New Roman&quot; style=&quot;font-size: 15px;&quot;&gt;Community &lt;br&gt;Type?&lt;/font&gt;" style="shape=rhombus;html=1;dashed=0;whiteSpace=wrap;perimeter=rhombusPerimeter;fontSize=15;" parent="1" vertex="1">
          <mxGeometry x="270" y="190" width="120" height="120" as="geometry" />
        </mxCell>
        <mxCell id="C_hsA70x_JukYjM8tFtG-2" value="Notify user of membership approval" style="rounded=1;whiteSpace=wrap;html=1;fontFamily=Times New Roman;fontSize=15;" parent="1" vertex="1">
          <mxGeometry x="435" y="685" width="140" height="70" as="geometry" />
        </mxCell>
        <mxCell id="C_hsA70x_JukYjM8tFtG-15" style="edgeStyle=orthogonalEdgeStyle;rounded=0;orthogonalLoop=1;jettySize=auto;html=1;fontSize=15;exitX=0.5;exitY=1;exitDx=0;exitDy=0;entryX=0.5;entryY=0;entryDx=0;entryDy=0;" parent="1" source="C_hsA70x_JukYjM8tFtG-3" target="C_hsA70x_JukYjM8tFtG-2" edge="1">
          <mxGeometry relative="1" as="geometry">
            <mxPoint x="70.0042105263156" y="395.0526315789474" as="sourcePoint" />
            <mxPoint x="400" y="670" as="targetPoint" />
            <Array as="points" />
          </mxGeometry>
        </mxCell>
        <mxCell id="C_hsA70x_JukYjM8tFtG-18" style="edgeStyle=orthogonalEdgeStyle;rounded=0;orthogonalLoop=1;jettySize=auto;html=1;entryX=0.25;entryY=0;entryDx=0;entryDy=0;fontSize=15;exitX=1;exitY=0.5;exitDx=0;exitDy=0;" parent="1" source="C_hsA70x_JukYjM8tFtG-3" target="C_hsA70x_JukYjM8tFtG-4" edge="1">
          <mxGeometry relative="1" as="geometry">
            <mxPoint x="747.065" y="369.95000000000005" as="targetPoint" />
            <Array as="points">
              <mxPoint x="580" y="300" />
              <mxPoint x="580" y="300" />
            </Array>
            <mxPoint x="650.0000000000002" y="271.8699999999999" as="sourcePoint" />
          </mxGeometry>
        </mxCell>
        <mxCell id="C_hsA70x_JukYjM8tFtG-3" value="&lt;font face=&quot;Times New Roman&quot; style=&quot;font-size: 15px;&quot;&gt;User has the &lt;br style=&quot;font-size: 15px;&quot;&gt;same religion as the community?&lt;/font&gt;" style="shape=rhombus;html=1;dashed=0;whiteSpace=wrap;perimeter=rhombusPerimeter;fontSize=15;" parent="1" vertex="1">
          <mxGeometry x="430" y="190" width="150" height="120" as="geometry" />
        </mxCell>
        <mxCell id="C_hsA70x_JukYjM8tFtG-21" value="" style="edgeStyle=orthogonalEdgeStyle;rounded=0;orthogonalLoop=1;jettySize=auto;html=1;fontSize=15;" parent="1" source="C_hsA70x_JukYjM8tFtG-4" target="C_hsA70x_JukYjM8tFtG-5" edge="1">
          <mxGeometry relative="1" as="geometry" />
        </mxCell>
        <mxCell id="C_hsA70x_JukYjM8tFtG-4" value="Display Confirmation Message" style="rounded=1;whiteSpace=wrap;html=1;fontFamily=Times New Roman;fontSize=15;" parent="1" vertex="1">
          <mxGeometry x="545" y="359" width="140" height="55" as="geometry" />
        </mxCell>
        <mxCell id="C_hsA70x_JukYjM8tFtG-23" style="edgeStyle=orthogonalEdgeStyle;rounded=0;orthogonalLoop=1;jettySize=auto;html=1;fontSize=15;exitX=0.5;exitY=1;exitDx=0;exitDy=0;entryX=0.5;entryY=0;entryDx=0;entryDy=0;" parent="1" source="C_hsA70x_JukYjM8tFtG-5" target="C_hsA70x_JukYjM8tFtG-7" edge="1">
          <mxGeometry relative="1" as="geometry">
            <mxPoint x="545" y="616.5" as="sourcePoint" />
            <mxPoint x="455" y="796.5" as="targetPoint" />
          </mxGeometry>
        </mxCell>
        <mxCell id="C_hsA70x_JukYjM8tFtG-25" style="edgeStyle=orthogonalEdgeStyle;rounded=0;orthogonalLoop=1;jettySize=auto;html=1;entryX=1;entryY=0.5;entryDx=0;entryDy=0;exitX=0.5;exitY=1;exitDx=0;exitDy=0;fontSize=15;" parent="1" source="2uouN8HQwV0cTqay9RCp-1" target="qQMgoXHLbFctzVxCktM1-3" edge="1">
          <mxGeometry relative="1" as="geometry">
            <mxPoint x="860" y="816.5" as="sourcePoint" />
            <mxPoint x="1060" y="705" as="targetPoint" />
            <Array as="points">
              <mxPoint x="1110" y="624" />
            </Array>
          </mxGeometry>
        </mxCell>
        <mxCell id="C_hsA70x_JukYjM8tFtG-5" value="&lt;font face=&quot;Times New Roman&quot; style=&quot;font-size: 15px;&quot;&gt;Agree to send membership &lt;br style=&quot;font-size: 15px;&quot;&gt;request?&lt;/font&gt;" style="shape=rhombus;html=1;dashed=0;whiteSpace=wrap;perimeter=rhombusPerimeter;fontSize=15;" parent="1" vertex="1">
          <mxGeometry x="545" y="446.5" width="140" height="90" as="geometry" />
        </mxCell>
        <mxCell id="C_hsA70x_JukYjM8tFtG-6" value="Notify Community Moderator of Membership Request" style="rounded=1;whiteSpace=wrap;html=1;fontFamily=Times New Roman;fontSize=15;" parent="1" vertex="1">
          <mxGeometry x="790" y="464" width="140" height="55" as="geometry" />
        </mxCell>
        <mxCell id="C_hsA70x_JukYjM8tFtG-7" value="Close Confirmation Message" style="rounded=1;whiteSpace=wrap;html=1;fontFamily=Times New Roman;fontSize=15;" parent="1" vertex="1">
          <mxGeometry x="545" y="596.5" width="140" height="55" as="geometry" />
        </mxCell>
        <mxCell id="C_hsA70x_JukYjM8tFtG-8" value="Public" style="text;html=1;strokeColor=none;fillColor=none;align=center;verticalAlign=middle;whiteSpace=wrap;rounded=0;fontFamily=Times New Roman;fontSize=15;" parent="1" vertex="1">
          <mxGeometry x="380" y="210" width="60" height="30" as="geometry" />
        </mxCell>
        <mxCell id="C_hsA70x_JukYjM8tFtG-9" value="Private" style="text;html=1;strokeColor=none;fillColor=none;align=center;verticalAlign=middle;whiteSpace=wrap;rounded=0;fontFamily=Times New Roman;fontSize=15;" parent="1" vertex="1">
          <mxGeometry x="660" y="130" width="60" height="30" as="geometry" />
        </mxCell>
        <mxCell id="C_hsA70x_JukYjM8tFtG-19" style="edgeStyle=orthogonalEdgeStyle;rounded=0;orthogonalLoop=1;jettySize=auto;html=1;entryX=0.5;entryY=0;entryDx=0;entryDy=0;fontSize=15;exitX=1;exitY=0.5;exitDx=0;exitDy=0;" parent="1" source="C_hsA70x_JukYjM8tFtG-11" target="C_hsA70x_JukYjM8tFtG-6" edge="1">
          <mxGeometry relative="1" as="geometry">
            <Array as="points">
              <mxPoint x="860" y="250" />
            </Array>
            <mxPoint x="960.0000000000002" y="373.6400000000001" as="sourcePoint" />
            <mxPoint x="1067.725" y="310" as="targetPoint" />
          </mxGeometry>
        </mxCell>
        <mxCell id="C_hsA70x_JukYjM8tFtG-11" value="&lt;font face=&quot;Times New Roman&quot; style=&quot;font-size: 15px;&quot;&gt;User has the &lt;br style=&quot;font-size: 15px;&quot;&gt;same religion as the community?&lt;/font&gt;" style="shape=rhombus;html=1;dashed=0;whiteSpace=wrap;perimeter=rhombusPerimeter;fontSize=15;" parent="1" vertex="1">
          <mxGeometry x="650" y="190" width="150" height="120" as="geometry" />
        </mxCell>
        <mxCell id="C_hsA70x_JukYjM8tFtG-20" style="edgeStyle=orthogonalEdgeStyle;rounded=0;orthogonalLoop=1;jettySize=auto;html=1;fontSize=15;exitX=1;exitY=0.5;exitDx=0;exitDy=0;entryX=0;entryY=0.5;entryDx=0;entryDy=0;" parent="1" source="C_hsA70x_JukYjM8tFtG-1" target="C_hsA70x_JukYjM8tFtG-3" edge="1">
          <mxGeometry relative="1" as="geometry">
            <mxPoint x="570" y="292.5" as="sourcePoint" />
            <mxPoint x="655" y="292.5" as="targetPoint" />
          </mxGeometry>
        </mxCell>
        <mxCell id="C_hsA70x_JukYjM8tFtG-32" value="False" style="text;html=1;strokeColor=none;fillColor=none;align=center;verticalAlign=middle;whiteSpace=wrap;rounded=0;fontFamily=Times New Roman;fontSize=15;" parent="1" vertex="1">
          <mxGeometry x="530" y="330" width="60" height="30" as="geometry" />
        </mxCell>
        <mxCell id="C_hsA70x_JukYjM8tFtG-33" value="True" style="text;html=1;strokeColor=none;fillColor=none;align=center;verticalAlign=middle;whiteSpace=wrap;rounded=0;fontFamily=Times New Roman;fontSize=15;" parent="1" vertex="1">
          <mxGeometry x="460" y="446.5" width="60" height="30" as="geometry" />
        </mxCell>
        <mxCell id="C_hsA70x_JukYjM8tFtG-38" value="True" style="text;html=1;strokeColor=none;fillColor=none;align=center;verticalAlign=middle;whiteSpace=wrap;rounded=0;fontFamily=Times New Roman;fontSize=15;" parent="1" vertex="1">
          <mxGeometry x="700" y="464" width="60" height="30" as="geometry" />
        </mxCell>
        <mxCell id="Xku7hcmW10QOWoXLHIj2-1" value="True" style="text;html=1;strokeColor=none;fillColor=none;align=center;verticalAlign=middle;whiteSpace=wrap;rounded=0;fontFamily=Times New Roman;fontSize=15;" parent="1" vertex="1">
          <mxGeometry x="850" y="330" width="60" height="30" as="geometry" />
        </mxCell>
        <mxCell id="Xku7hcmW10QOWoXLHIj2-3" value="False" style="text;html=1;strokeColor=none;fillColor=none;align=center;verticalAlign=middle;whiteSpace=wrap;rounded=0;fontFamily=Times New Roman;fontSize=15;" parent="1" vertex="1">
          <mxGeometry x="560" y="545" width="60" height="30" as="geometry" />
        </mxCell>
        <mxCell id="2uouN8HQwV0cTqay9RCp-1" value="&lt;font face=&quot;Times New Roman&quot;&gt;Approve&lt;br&gt;membership&lt;br&gt;request?&lt;/font&gt;" style="shape=rhombus;html=1;dashed=0;whiteSpace=wrap;perimeter=rhombusPerimeter;fontSize=15;" parent="1" vertex="1">
          <mxGeometry x="1040" y="446.5" width="140" height="90" as="geometry" />
        </mxCell>
        <mxCell id="2uouN8HQwV0cTqay9RCp-2" style="edgeStyle=orthogonalEdgeStyle;rounded=0;orthogonalLoop=1;jettySize=auto;html=1;entryX=0;entryY=0.5;entryDx=0;entryDy=0;exitX=1;exitY=0.5;exitDx=0;exitDy=0;fontSize=15;" parent="1" source="C_hsA70x_JukYjM8tFtG-6" target="2uouN8HQwV0cTqay9RCp-1" edge="1">
          <mxGeometry relative="1" as="geometry">
            <mxPoint x="1050" y="455" as="sourcePoint" />
            <mxPoint x="1140" y="455" as="targetPoint" />
            <Array as="points" />
          </mxGeometry>
        </mxCell>
        <mxCell id="qQMgoXHLbFctzVxCktM1-1" value="" style="ellipse;html=1;shape=endState;fillColor=strokeColor;fontSize=18;" parent="1" vertex="1">
          <mxGeometry x="600" y="789" width="30" height="30" as="geometry" />
        </mxCell>
        <mxCell id="qQMgoXHLbFctzVxCktM1-3" value="Reset Membership Request" style="rounded=1;whiteSpace=wrap;html=1;fontFamily=Times New Roman;fontSize=15;" parent="1" vertex="1">
          <mxGeometry x="780" y="596.5" width="140" height="55" as="geometry" />
        </mxCell>
        <mxCell id="qQMgoXHLbFctzVxCktM1-4" style="edgeStyle=orthogonalEdgeStyle;rounded=0;orthogonalLoop=1;jettySize=auto;html=1;entryX=0.75;entryY=0;entryDx=0;entryDy=0;fontSize=15;exitX=0;exitY=0.5;exitDx=0;exitDy=0;" parent="1" source="C_hsA70x_JukYjM8tFtG-11" target="C_hsA70x_JukYjM8tFtG-4" edge="1">
          <mxGeometry relative="1" as="geometry">
            <mxPoint x="790" y="444" as="targetPoint" />
            <Array as="points">
              <mxPoint x="650" y="300" />
              <mxPoint x="650" y="300" />
            </Array>
            <mxPoint x="753" y="320" as="sourcePoint" />
          </mxGeometry>
        </mxCell>
        <mxCell id="qQMgoXHLbFctzVxCktM1-5" value="False" style="text;html=1;strokeColor=none;fillColor=none;align=center;verticalAlign=middle;whiteSpace=wrap;rounded=0;fontFamily=Times New Roman;fontSize=15;" parent="1" vertex="1">
          <mxGeometry x="685" y="310" width="60" height="30" as="geometry" />
        </mxCell>
        <mxCell id="qQMgoXHLbFctzVxCktM1-6" style="edgeStyle=orthogonalEdgeStyle;rounded=0;orthogonalLoop=1;jettySize=auto;html=1;exitX=1;exitY=0.5;exitDx=0;exitDy=0;fontSize=15;entryX=1;entryY=0.5;entryDx=0;entryDy=0;" parent="1" source="2uouN8HQwV0cTqay9RCp-1" target="C_hsA70x_JukYjM8tFtG-2" edge="1">
          <mxGeometry relative="1" as="geometry">
            <mxPoint x="1130" y="716.52" as="sourcePoint" />
            <mxPoint x="980" y="795" as="targetPoint" />
            <Array as="points">
              <mxPoint x="1180" y="720" />
            </Array>
          </mxGeometry>
        </mxCell>
        <mxCell id="qQMgoXHLbFctzVxCktM1-8" style="edgeStyle=orthogonalEdgeStyle;rounded=0;orthogonalLoop=1;jettySize=auto;html=1;fontSize=15;exitX=0.5;exitY=1;exitDx=0;exitDy=0;entryX=0.5;entryY=0;entryDx=0;entryDy=0;jumpStyle=arc;" parent="1" source="C_hsA70x_JukYjM8tFtG-7" target="qQMgoXHLbFctzVxCktM1-1" edge="1">
          <mxGeometry relative="1" as="geometry">
            <mxPoint x="670" y="665" as="sourcePoint" />
            <mxPoint x="670" y="725" as="targetPoint" />
          </mxGeometry>
        </mxCell>
        <mxCell id="qQMgoXHLbFctzVxCktM1-9" style="edgeStyle=orthogonalEdgeStyle;rounded=0;orthogonalLoop=1;jettySize=auto;html=1;fontSize=15;entryX=1;entryY=0.5;entryDx=0;entryDy=0;exitX=0.5;exitY=1;exitDx=0;exitDy=0;jumpStyle=arc;" parent="1" source="qQMgoXHLbFctzVxCktM1-3" target="qQMgoXHLbFctzVxCktM1-1" edge="1">
          <mxGeometry relative="1" as="geometry">
            <mxPoint x="850" y="665" as="sourcePoint" />
            <mxPoint x="810" y="808" as="targetPoint" />
            <Array as="points">
              <mxPoint x="850" y="805" />
            </Array>
          </mxGeometry>
        </mxCell>
        <mxCell id="qQMgoXHLbFctzVxCktM1-10" style="edgeStyle=orthogonalEdgeStyle;rounded=0;orthogonalLoop=1;jettySize=auto;html=1;fontSize=15;exitX=0.5;exitY=1;exitDx=0;exitDy=0;entryX=0;entryY=0.5;entryDx=0;entryDy=0;" parent="1" source="C_hsA70x_JukYjM8tFtG-2" target="qQMgoXHLbFctzVxCktM1-1" edge="1">
          <mxGeometry relative="1" as="geometry">
            <mxPoint x="545" y="572" as="sourcePoint" />
            <mxPoint x="545" y="685" as="targetPoint" />
          </mxGeometry>
        </mxCell>
        <mxCell id="qQMgoXHLbFctzVxCktM1-11" value="No" style="text;html=1;strokeColor=none;fillColor=none;align=center;verticalAlign=middle;whiteSpace=wrap;rounded=0;fontFamily=Times New Roman;fontSize=15;" parent="1" vertex="1">
          <mxGeometry x="1000" y="596.5" width="60" height="30" as="geometry" />
        </mxCell>
        <mxCell id="qQMgoXHLbFctzVxCktM1-12" value="Yes" style="text;html=1;strokeColor=none;fillColor=none;align=center;verticalAlign=middle;whiteSpace=wrap;rounded=0;fontFamily=Times New Roman;fontSize=15;" parent="1" vertex="1">
          <mxGeometry x="1010" y="690" width="60" height="30" as="geometry" />
        </mxCell>
      </root>
    </mxGraphModel>
  </diagram>
  <diagram id="FWdZBXoYO8F4u5Z1wy7E" name="PrayerRequest">
    <mxGraphModel dx="1242" dy="742" grid="1" gridSize="10" guides="1" tooltips="1" connect="1" arrows="1" fold="1" page="1" pageScale="1" pageWidth="850" pageHeight="1100" math="0" shadow="0">
      <root>
        <mxCell id="0" />
        <mxCell id="1" parent="0" />
        <mxCell id="vrK8ORBF4wUssyVm8zQL-5" style="edgeStyle=orthogonalEdgeStyle;rounded=0;orthogonalLoop=1;jettySize=auto;html=1;fontSize=15;" parent="1" source="0WClLpeylGHvj3Z5F42Z-1" target="0WClLpeylGHvj3Z5F42Z-2" edge="1">
          <mxGeometry relative="1" as="geometry" />
        </mxCell>
        <mxCell id="0WClLpeylGHvj3Z5F42Z-1" value="" style="ellipse;fillColor=strokeColor;html=1;fontSize=15;" parent="1" vertex="1">
          <mxGeometry x="135" y="80" width="30" height="30" as="geometry" />
        </mxCell>
        <mxCell id="vrK8ORBF4wUssyVm8zQL-6" style="edgeStyle=orthogonalEdgeStyle;rounded=0;orthogonalLoop=1;jettySize=auto;html=1;entryX=0.5;entryY=0;entryDx=0;entryDy=0;fontSize=15;" parent="1" source="0WClLpeylGHvj3Z5F42Z-2" target="0WClLpeylGHvj3Z5F42Z-7" edge="1">
          <mxGeometry relative="1" as="geometry" />
        </mxCell>
        <mxCell id="0WClLpeylGHvj3Z5F42Z-2" value="Click Create Prayer Request" style="rounded=1;whiteSpace=wrap;html=1;fontFamily=Times New Roman;fontSize=15;" parent="1" vertex="1">
          <mxGeometry x="90" y="150" width="120" height="40" as="geometry" />
        </mxCell>
        <mxCell id="0WClLpeylGHvj3Z5F42Z-5" value="" style="ellipse;html=1;shape=endState;fillColor=strokeColor;fontSize=15;" parent="1" vertex="1">
          <mxGeometry x="365" y="698" width="30" height="30" as="geometry" />
        </mxCell>
        <mxCell id="0WClLpeylGHvj3Z5F42Z-6" value="True" style="text;html=1;strokeColor=none;fillColor=none;align=center;verticalAlign=middle;whiteSpace=wrap;rounded=0;fontFamily=Times New Roman;fontSize=15;" parent="1" vertex="1">
          <mxGeometry x="368" y="300" width="60" height="30" as="geometry" />
        </mxCell>
        <mxCell id="vrK8ORBF4wUssyVm8zQL-7" style="edgeStyle=orthogonalEdgeStyle;rounded=0;orthogonalLoop=1;jettySize=auto;html=1;entryX=0;entryY=0.5;entryDx=0;entryDy=0;fontSize=15;" parent="1" source="0WClLpeylGHvj3Z5F42Z-7" target="Iws_iJKS7HY6pFDyrzMb-1" edge="1">
          <mxGeometry relative="1" as="geometry" />
        </mxCell>
        <mxCell id="0WClLpeylGHvj3Z5F42Z-7" value="Input Prayer Request Details and Submit" style="rounded=1;whiteSpace=wrap;html=1;fontFamily=Times New Roman;fontSize=15;" parent="1" vertex="1">
          <mxGeometry x="90" y="223" width="120" height="65" as="geometry" />
        </mxCell>
        <mxCell id="vrK8ORBF4wUssyVm8zQL-8" style="edgeStyle=orthogonalEdgeStyle;rounded=0;orthogonalLoop=1;jettySize=auto;html=1;entryX=0.5;entryY=0;entryDx=0;entryDy=0;fontSize=15;" parent="1" source="Iws_iJKS7HY6pFDyrzMb-1" target="Iws_iJKS7HY6pFDyrzMb-2" edge="1">
          <mxGeometry relative="1" as="geometry" />
        </mxCell>
        <mxCell id="vrK8ORBF4wUssyVm8zQL-9" style="edgeStyle=orthogonalEdgeStyle;rounded=0;orthogonalLoop=1;jettySize=auto;html=1;entryX=0.75;entryY=0;entryDx=0;entryDy=0;fontSize=15;" parent="1" source="Iws_iJKS7HY6pFDyrzMb-1" target="0WClLpeylGHvj3Z5F42Z-7" edge="1">
          <mxGeometry relative="1" as="geometry">
            <Array as="points">
              <mxPoint x="180" y="205" />
            </Array>
          </mxGeometry>
        </mxCell>
        <mxCell id="Iws_iJKS7HY6pFDyrzMb-1" value="&lt;font face=&quot;Times New Roman&quot; style=&quot;font-size: 15px;&quot;&gt;Inputs are&lt;br style=&quot;font-size: 15px;&quot;&gt;valid&amp;nbsp;and&lt;br style=&quot;font-size: 15px;&quot;&gt;complete?&lt;/font&gt;" style="shape=rhombus;html=1;dashed=0;whiteSpace=wrap;perimeter=rhombusPerimeter;fontSize=15;" parent="1" vertex="1">
          <mxGeometry x="315" y="210" width="130" height="90" as="geometry" />
        </mxCell>
        <mxCell id="vrK8ORBF4wUssyVm8zQL-11" style="edgeStyle=orthogonalEdgeStyle;rounded=0;orthogonalLoop=1;jettySize=auto;html=1;fontSize=15;entryX=0;entryY=0.5;entryDx=0;entryDy=0;" parent="1" source="Iws_iJKS7HY6pFDyrzMb-2" target="vrK8ORBF4wUssyVm8zQL-1" edge="1">
          <mxGeometry relative="1" as="geometry">
            <mxPoint x="600" y="365" as="targetPoint" />
          </mxGeometry>
        </mxCell>
        <mxCell id="Iws_iJKS7HY6pFDyrzMb-2" value="Notify Member of Prayer Request Pending Approval" style="rounded=1;whiteSpace=wrap;html=1;fontFamily=Times New Roman;fontSize=15;" parent="1" vertex="1">
          <mxGeometry x="320" y="335" width="120" height="60" as="geometry" />
        </mxCell>
        <mxCell id="vrK8ORBF4wUssyVm8zQL-16" style="edgeStyle=orthogonalEdgeStyle;rounded=0;orthogonalLoop=1;jettySize=auto;html=1;exitX=0.5;exitY=1;exitDx=0;exitDy=0;entryX=1;entryY=0.5;entryDx=0;entryDy=0;fontSize=15;" parent="1" source="vrK8ORBF4wUssyVm8zQL-1" target="vrK8ORBF4wUssyVm8zQL-2" edge="1">
          <mxGeometry relative="1" as="geometry">
            <Array as="points">
              <mxPoint x="650" y="470" />
            </Array>
          </mxGeometry>
        </mxCell>
        <mxCell id="vrK8ORBF4wUssyVm8zQL-19" style="edgeStyle=orthogonalEdgeStyle;rounded=0;orthogonalLoop=1;jettySize=auto;html=1;entryX=1;entryY=0.5;entryDx=0;entryDy=0;fontSize=15;exitX=1;exitY=0.5;exitDx=0;exitDy=0;" parent="1" source="vrK8ORBF4wUssyVm8zQL-1" target="vrK8ORBF4wUssyVm8zQL-14" edge="1">
          <mxGeometry relative="1" as="geometry">
            <Array as="points">
              <mxPoint x="700" y="511" />
            </Array>
          </mxGeometry>
        </mxCell>
        <mxCell id="vrK8ORBF4wUssyVm8zQL-1" value="&lt;font face=&quot;Times New Roman&quot;&gt;Approve Prayer Request?&lt;/font&gt;" style="shape=rhombus;html=1;dashed=0;whiteSpace=wrap;perimeter=rhombusPerimeter;fontSize=15;" parent="1" vertex="1">
          <mxGeometry x="600" y="320" width="100" height="90" as="geometry" />
        </mxCell>
        <mxCell id="vrK8ORBF4wUssyVm8zQL-2" value="Notify Member of Disapproval" style="rounded=1;whiteSpace=wrap;html=1;fontFamily=Times New Roman;fontSize=15;" parent="1" vertex="1">
          <mxGeometry x="245" y="450" width="120" height="40" as="geometry" />
        </mxCell>
        <mxCell id="vrK8ORBF4wUssyVm8zQL-10" value="False" style="text;html=1;strokeColor=none;fillColor=none;align=center;verticalAlign=middle;whiteSpace=wrap;rounded=0;fontFamily=Times New Roman;fontSize=15;" parent="1" vertex="1">
          <mxGeometry x="310" y="180" width="60" height="30" as="geometry" />
        </mxCell>
        <mxCell id="vrK8ORBF4wUssyVm8zQL-21" style="edgeStyle=orthogonalEdgeStyle;rounded=0;orthogonalLoop=1;jettySize=auto;html=1;entryX=0.5;entryY=0;entryDx=0;entryDy=0;fontSize=15;" parent="1" source="vrK8ORBF4wUssyVm8zQL-14" target="vrK8ORBF4wUssyVm8zQL-20" edge="1">
          <mxGeometry relative="1" as="geometry" />
        </mxCell>
        <mxCell id="vrK8ORBF4wUssyVm8zQL-14" value="Notify Member of Approval" style="rounded=1;whiteSpace=wrap;html=1;fontFamily=Times New Roman;fontSize=15;" parent="1" vertex="1">
          <mxGeometry x="395" y="490" width="120" height="42" as="geometry" />
        </mxCell>
        <mxCell id="vrK8ORBF4wUssyVm8zQL-23" style="edgeStyle=orthogonalEdgeStyle;rounded=0;orthogonalLoop=1;jettySize=auto;html=1;fontSize=15;entryX=1;entryY=0;entryDx=0;entryDy=0;" parent="1" source="vrK8ORBF4wUssyVm8zQL-20" target="0WClLpeylGHvj3Z5F42Z-5" edge="1">
          <mxGeometry relative="1" as="geometry">
            <Array as="points">
              <mxPoint x="455" y="680" />
              <mxPoint x="391" y="680" />
            </Array>
          </mxGeometry>
        </mxCell>
        <mxCell id="vrK8ORBF4wUssyVm8zQL-20" value="Display Prayer Request on Community and &amp;nbsp;Community Members&#39; Prayer Feeds" style="rounded=1;whiteSpace=wrap;html=1;fontFamily=Times New Roman;fontSize=15;" parent="1" vertex="1">
          <mxGeometry x="395" y="546" width="120" height="108" as="geometry" />
        </mxCell>
        <mxCell id="vrK8ORBF4wUssyVm8zQL-24" value="Approve" style="text;html=1;strokeColor=none;fillColor=none;align=center;verticalAlign=middle;whiteSpace=wrap;rounded=0;fontFamily=Times New Roman;fontSize=15;" parent="1" vertex="1">
          <mxGeometry x="570" y="490" width="60" height="30" as="geometry" />
        </mxCell>
        <mxCell id="vrK8ORBF4wUssyVm8zQL-25" value="Disapprove" style="text;html=1;strokeColor=none;fillColor=none;align=center;verticalAlign=middle;whiteSpace=wrap;rounded=0;fontFamily=Times New Roman;fontSize=15;" parent="1" vertex="1">
          <mxGeometry x="480" y="443" width="60" height="30" as="geometry" />
        </mxCell>
        <mxCell id="L8cSIo-QIr4_-MZ-hHfx-1" style="edgeStyle=orthogonalEdgeStyle;rounded=0;orthogonalLoop=1;jettySize=auto;html=1;exitX=0.5;exitY=1;exitDx=0;exitDy=0;entryX=0;entryY=0;entryDx=0;entryDy=0;fontSize=15;" parent="1" source="vrK8ORBF4wUssyVm8zQL-2" target="0WClLpeylGHvj3Z5F42Z-5" edge="1">
          <mxGeometry relative="1" as="geometry">
            <Array as="points">
              <mxPoint x="305" y="680" />
              <mxPoint x="369" y="680" />
            </Array>
            <mxPoint x="310" y="530" as="sourcePoint" />
            <mxPoint x="50" y="612" as="targetPoint" />
          </mxGeometry>
        </mxCell>
      </root>
    </mxGraphModel>
  </diagram>
  <diagram id="AodMAnwdrp9UwqJzafo1" name="EventCreation">
    <mxGraphModel dx="1242" dy="742" grid="1" gridSize="10" guides="1" tooltips="1" connect="1" arrows="1" fold="1" page="1" pageScale="1" pageWidth="850" pageHeight="1100" math="0" shadow="0">
      <root>
        <mxCell id="0" />
        <mxCell id="1" parent="0" />
        <mxCell id="_KyzmnwAT1kV9XDJMO_a-3" style="edgeStyle=orthogonalEdgeStyle;rounded=0;orthogonalLoop=1;jettySize=auto;html=1;entryX=0.5;entryY=0;entryDx=0;entryDy=0;fontSize=15;" parent="1" source="5vGF6WapHE1vcpzMZEJ9-1" target="5vGF6WapHE1vcpzMZEJ9-2" edge="1">
          <mxGeometry relative="1" as="geometry" />
        </mxCell>
        <mxCell id="5vGF6WapHE1vcpzMZEJ9-1" value="" style="ellipse;fillColor=strokeColor;html=1;fontSize=15;" parent="1" vertex="1">
          <mxGeometry x="135" y="80" width="30" height="30" as="geometry" />
        </mxCell>
        <mxCell id="_KyzmnwAT1kV9XDJMO_a-5" style="edgeStyle=orthogonalEdgeStyle;rounded=0;orthogonalLoop=1;jettySize=auto;html=1;fontSize=15;" parent="1" source="5vGF6WapHE1vcpzMZEJ9-2" target="UGibtcn-S_Y2E4sia9Gi-1" edge="1">
          <mxGeometry relative="1" as="geometry" />
        </mxCell>
        <mxCell id="5vGF6WapHE1vcpzMZEJ9-2" value="Click Add Event&amp;nbsp;" style="rounded=1;whiteSpace=wrap;html=1;fontFamily=Times New Roman;fontSize=15;" parent="1" vertex="1">
          <mxGeometry x="90" y="150" width="120" height="40" as="geometry" />
        </mxCell>
        <mxCell id="5vGF6WapHE1vcpzMZEJ9-3" value="&lt;font face=&quot;Times New Roman&quot;&gt;Event type?&lt;/font&gt;" style="shape=rhombus;html=1;dashed=0;whiteSpace=wrap;perimeter=rhombusPerimeter;fontSize=15;" parent="1" vertex="1">
          <mxGeometry x="100" y="340" width="100" height="90" as="geometry" />
        </mxCell>
        <mxCell id="5vGF6WapHE1vcpzMZEJ9-5" value="" style="ellipse;html=1;shape=endState;fillColor=strokeColor;fontSize=15;" parent="1" vertex="1">
          <mxGeometry x="365" y="520" width="30" height="30" as="geometry" />
        </mxCell>
        <mxCell id="_KyzmnwAT1kV9XDJMO_a-6" style="edgeStyle=orthogonalEdgeStyle;rounded=0;orthogonalLoop=1;jettySize=auto;html=1;exitX=0.5;exitY=1;exitDx=0;exitDy=0;entryX=0.5;entryY=0;entryDx=0;entryDy=0;fontSize=15;" parent="1" source="UGibtcn-S_Y2E4sia9Gi-1" target="UGibtcn-S_Y2E4sia9Gi-2" edge="1">
          <mxGeometry relative="1" as="geometry">
            <Array as="points">
              <mxPoint x="380" y="210" />
              <mxPoint x="150" y="210" />
            </Array>
          </mxGeometry>
        </mxCell>
        <mxCell id="UGibtcn-S_Y2E4sia9Gi-1" value="Display New Event Form" style="rounded=1;whiteSpace=wrap;html=1;fontFamily=Times New Roman;fontSize=15;" parent="1" vertex="1">
          <mxGeometry x="320" y="150" width="120" height="40" as="geometry" />
        </mxCell>
        <mxCell id="_KyzmnwAT1kV9XDJMO_a-8" style="edgeStyle=orthogonalEdgeStyle;rounded=0;orthogonalLoop=1;jettySize=auto;html=1;entryX=0.5;entryY=0;entryDx=0;entryDy=0;fontSize=15;exitX=0.5;exitY=1;exitDx=0;exitDy=0;" parent="1" source="UGibtcn-S_Y2E4sia9Gi-2" target="5vGF6WapHE1vcpzMZEJ9-3" edge="1">
          <mxGeometry relative="1" as="geometry" />
        </mxCell>
        <mxCell id="UGibtcn-S_Y2E4sia9Gi-2" value="Input Basic Event Information and Event Access" style="rounded=1;whiteSpace=wrap;html=1;fontFamily=Times New Roman;fontSize=15;" parent="1" vertex="1">
          <mxGeometry x="90" y="238" width="120" height="62" as="geometry" />
        </mxCell>
        <mxCell id="_KyzmnwAT1kV9XDJMO_a-4" style="edgeStyle=orthogonalEdgeStyle;rounded=0;orthogonalLoop=1;jettySize=auto;html=1;entryX=0.5;entryY=0;entryDx=0;entryDy=0;fontSize=15;" parent="1" source="_KyzmnwAT1kV9XDJMO_a-2" target="5vGF6WapHE1vcpzMZEJ9-5" edge="1">
          <mxGeometry relative="1" as="geometry" />
        </mxCell>
        <mxCell id="_KyzmnwAT1kV9XDJMO_a-2" value="Notify Community Members" style="rounded=1;whiteSpace=wrap;html=1;fontFamily=Times New Roman;fontSize=15;" parent="1" vertex="1">
          <mxGeometry x="320" y="450" width="120" height="40" as="geometry" />
        </mxCell>
        <mxCell id="0pfFrzJq4VO91ideUSBG-1" value="Single" style="text;html=1;strokeColor=none;fillColor=none;align=center;verticalAlign=middle;whiteSpace=wrap;rounded=0;fontFamily=Times New Roman;fontSize=15;" parent="1" vertex="1">
          <mxGeometry x="210" y="430" width="60" height="30" as="geometry" />
        </mxCell>
        <mxCell id="0pfFrzJq4VO91ideUSBG-2" value="Series" style="text;html=1;strokeColor=none;fillColor=none;align=center;verticalAlign=middle;whiteSpace=wrap;rounded=0;fontFamily=Times New Roman;fontSize=15;" parent="1" vertex="1">
          <mxGeometry x="30" y="430" width="60" height="30" as="geometry" />
        </mxCell>
        <mxCell id="0pfFrzJq4VO91ideUSBG-3" style="edgeStyle=orthogonalEdgeStyle;rounded=0;orthogonalLoop=1;jettySize=auto;html=1;entryX=0.5;entryY=0;entryDx=0;entryDy=0;fontSize=15;exitX=0;exitY=0.5;exitDx=0;exitDy=0;" parent="1" source="5vGF6WapHE1vcpzMZEJ9-3" target="0pfFrzJq4VO91ideUSBG-5" edge="1">
          <mxGeometry relative="1" as="geometry">
            <mxPoint x="110" y="410" as="sourcePoint" />
            <mxPoint x="110" y="450" as="targetPoint" />
          </mxGeometry>
        </mxCell>
        <mxCell id="0pfFrzJq4VO91ideUSBG-4" style="edgeStyle=orthogonalEdgeStyle;rounded=0;orthogonalLoop=1;jettySize=auto;html=1;entryX=0.75;entryY=0;entryDx=0;entryDy=0;fontSize=15;exitX=1;exitY=0.5;exitDx=0;exitDy=0;" parent="1" source="5vGF6WapHE1vcpzMZEJ9-3" target="0pfFrzJq4VO91ideUSBG-6" edge="1">
          <mxGeometry relative="1" as="geometry">
            <mxPoint x="229.74" y="380" as="sourcePoint" />
            <mxPoint x="229.74" y="420" as="targetPoint" />
          </mxGeometry>
        </mxCell>
        <mxCell id="0pfFrzJq4VO91ideUSBG-5" value="Input sub-events" style="rounded=1;whiteSpace=wrap;html=1;fontFamily=Times New Roman;fontSize=15;" parent="1" vertex="1">
          <mxGeometry x="20" y="480" width="120" height="40" as="geometry" />
        </mxCell>
        <mxCell id="0pfFrzJq4VO91ideUSBG-6" value="Select recurrence type" style="rounded=1;whiteSpace=wrap;html=1;fontFamily=Times New Roman;fontSize=15;" parent="1" vertex="1">
          <mxGeometry x="90" y="600" width="120" height="62" as="geometry" />
        </mxCell>
        <mxCell id="0pfFrzJq4VO91ideUSBG-8" style="edgeStyle=orthogonalEdgeStyle;rounded=0;orthogonalLoop=1;jettySize=auto;html=1;entryX=0.25;entryY=0;entryDx=0;entryDy=0;fontSize=15;exitX=0.5;exitY=1;exitDx=0;exitDy=0;" parent="1" source="0pfFrzJq4VO91ideUSBG-5" target="0pfFrzJq4VO91ideUSBG-6" edge="1">
          <mxGeometry relative="1" as="geometry">
            <mxPoint x="110" y="395" as="sourcePoint" />
            <mxPoint x="90" y="490" as="targetPoint" />
          </mxGeometry>
        </mxCell>
        <mxCell id="0pfFrzJq4VO91ideUSBG-9" value="Submit form" style="rounded=1;whiteSpace=wrap;html=1;fontFamily=Times New Roman;fontSize=15;" parent="1" vertex="1">
          <mxGeometry x="90" y="710" width="120" height="40" as="geometry" />
        </mxCell>
        <mxCell id="0pfFrzJq4VO91ideUSBG-10" style="edgeStyle=orthogonalEdgeStyle;rounded=0;orthogonalLoop=1;jettySize=auto;html=1;entryX=0.5;entryY=0;entryDx=0;entryDy=0;fontSize=15;exitX=0.5;exitY=1;exitDx=0;exitDy=0;" parent="1" source="0pfFrzJq4VO91ideUSBG-6" target="0pfFrzJq4VO91ideUSBG-9" edge="1">
          <mxGeometry relative="1" as="geometry">
            <mxPoint x="90" y="530" as="sourcePoint" />
            <mxPoint x="130" y="610" as="targetPoint" />
          </mxGeometry>
        </mxCell>
        <mxCell id="1G9AmSCDhvdMTmcK3LcF-1" value="Display event creation confirmation message" style="rounded=1;whiteSpace=wrap;html=1;fontFamily=Times New Roman;fontSize=15;" parent="1" vertex="1">
          <mxGeometry x="320" y="330" width="120" height="80" as="geometry" />
        </mxCell>
        <mxCell id="1G9AmSCDhvdMTmcK3LcF-2" style="edgeStyle=orthogonalEdgeStyle;rounded=0;orthogonalLoop=1;jettySize=auto;html=1;entryX=0;entryY=0.5;entryDx=0;entryDy=0;fontSize=15;exitX=1;exitY=0.5;exitDx=0;exitDy=0;" parent="1" source="0pfFrzJq4VO91ideUSBG-9" target="1G9AmSCDhvdMTmcK3LcF-1" edge="1">
          <mxGeometry relative="1" as="geometry">
            <mxPoint x="310" y="620" as="sourcePoint" />
            <mxPoint x="310" y="668" as="targetPoint" />
            <Array as="points">
              <mxPoint x="280" y="730" />
              <mxPoint x="280" y="370" />
            </Array>
          </mxGeometry>
        </mxCell>
        <mxCell id="1G9AmSCDhvdMTmcK3LcF-3" style="edgeStyle=orthogonalEdgeStyle;rounded=0;orthogonalLoop=1;jettySize=auto;html=1;fontSize=15;exitX=0.5;exitY=1;exitDx=0;exitDy=0;" parent="1" source="1G9AmSCDhvdMTmcK3LcF-1" edge="1">
          <mxGeometry relative="1" as="geometry">
            <mxPoint x="390" y="500" as="sourcePoint" />
            <mxPoint x="380" y="450" as="targetPoint" />
          </mxGeometry>
        </mxCell>
      </root>
    </mxGraphModel>
  </diagram>
  <diagram id="s4jee4L6zF2Goez3KX01" name="Attendance">
    <mxGraphModel dx="1242" dy="742" grid="1" gridSize="10" guides="1" tooltips="1" connect="1" arrows="1" fold="1" page="1" pageScale="1" pageWidth="850" pageHeight="1100" math="0" shadow="0">
      <root>
        <mxCell id="0" />
        <mxCell id="1" parent="0" />
        <mxCell id="RS9-Hoh7F00mR6cNcam1-4" value="" style="edgeStyle=orthogonalEdgeStyle;rounded=0;orthogonalLoop=1;jettySize=auto;html=1;fontSize=15;" parent="1" source="HWKgetujE_o_d1HKFMaE-1" target="HWKgetujE_o_d1HKFMaE-2" edge="1">
          <mxGeometry relative="1" as="geometry" />
        </mxCell>
        <mxCell id="HWKgetujE_o_d1HKFMaE-1" value="" style="ellipse;fillColor=strokeColor;html=1;fontSize=15;" parent="1" vertex="1">
          <mxGeometry x="135" y="80" width="30" height="30" as="geometry" />
        </mxCell>
        <mxCell id="RS9-Hoh7F00mR6cNcam1-8" value="" style="edgeStyle=orthogonalEdgeStyle;rounded=0;orthogonalLoop=1;jettySize=auto;html=1;fontSize=15;entryX=0;entryY=0.5;entryDx=0;entryDy=0;" parent="1" source="HWKgetujE_o_d1HKFMaE-2" target="RS9-Hoh7F00mR6cNcam1-1" edge="1">
          <mxGeometry relative="1" as="geometry">
            <mxPoint x="280" y="170" as="targetPoint" />
          </mxGeometry>
        </mxCell>
        <mxCell id="HWKgetujE_o_d1HKFMaE-2" value="Select Event Response" style="rounded=1;whiteSpace=wrap;html=1;fontFamily=Times New Roman;fontSize=15;" parent="1" vertex="1">
          <mxGeometry x="90" y="150" width="120" height="40" as="geometry" />
        </mxCell>
        <mxCell id="HWKgetujE_o_d1HKFMaE-3" value="&lt;font face=&quot;Times New Roman&quot; style=&quot;font-size: 15px;&quot;&gt;Response&lt;br&gt;Type?&lt;/font&gt;" style="shape=rhombus;html=1;dashed=0;whiteSpace=wrap;perimeter=rhombusPerimeter;fontSize=15;" parent="1" vertex="1">
          <mxGeometry x="375" y="260" width="100" height="90" as="geometry" />
        </mxCell>
        <mxCell id="HWKgetujE_o_d1HKFMaE-5" value="" style="ellipse;html=1;shape=endState;fillColor=strokeColor;fontSize=15;" parent="1" vertex="1">
          <mxGeometry x="410" y="690" width="30" height="30" as="geometry" />
        </mxCell>
        <mxCell id="HWKgetujE_o_d1HKFMaE-6" value="Going" style="text;html=1;strokeColor=none;fillColor=none;align=center;verticalAlign=middle;whiteSpace=wrap;rounded=0;fontFamily=Times New Roman;fontSize=15;" parent="1" vertex="1">
          <mxGeometry x="365" y="350" width="60" height="30" as="geometry" />
        </mxCell>
        <mxCell id="WATRiztEpbDdl827W3Xh-1" value="Not Going" style="text;html=1;strokeColor=none;fillColor=none;align=center;verticalAlign=middle;whiteSpace=wrap;rounded=0;fontFamily=Times New Roman;fontSize=15;" parent="1" vertex="1">
          <mxGeometry x="460" y="310" width="60" height="30" as="geometry" />
        </mxCell>
        <mxCell id="RS9-Hoh7F00mR6cNcam1-10" style="edgeStyle=orthogonalEdgeStyle;rounded=0;orthogonalLoop=1;jettySize=auto;html=1;entryX=0;entryY=0.5;entryDx=0;entryDy=0;fontSize=15;" parent="1" source="RS9-Hoh7F00mR6cNcam1-1" target="RS9-Hoh7F00mR6cNcam1-5" edge="1">
          <mxGeometry relative="1" as="geometry" />
        </mxCell>
        <mxCell id="RS9-Hoh7F00mR6cNcam1-1" value="&lt;font face=&quot;Times New Roman&quot; style=&quot;font-size: 15px;&quot;&gt;Attendance Tracking?&lt;/font&gt;" style="shape=rhombus;html=1;dashed=0;whiteSpace=wrap;perimeter=rhombusPerimeter;fontSize=15;" parent="1" vertex="1">
          <mxGeometry x="375" y="125" width="100" height="90" as="geometry" />
        </mxCell>
        <mxCell id="RS9-Hoh7F00mR6cNcam1-3" value="False" style="text;html=1;strokeColor=none;fillColor=none;align=center;verticalAlign=middle;whiteSpace=wrap;rounded=0;fontFamily=Times New Roman;fontSize=15;" parent="1" vertex="1">
          <mxGeometry x="360" y="220" width="60" height="30" as="geometry" />
        </mxCell>
        <mxCell id="RS9-Hoh7F00mR6cNcam1-5" value="Check Attendance" style="rounded=1;whiteSpace=wrap;html=1;fontFamily=Times New Roman;fontSize=15;" parent="1" vertex="1">
          <mxGeometry x="610" y="150" width="120" height="40" as="geometry" />
        </mxCell>
        <mxCell id="RS9-Hoh7F00mR6cNcam1-6" value="&lt;font face=&quot;Times New Roman&quot; style=&quot;font-size: 15px;&quot;&gt;Attendance Confirmed?&lt;/font&gt;" style="shape=rhombus;html=1;dashed=0;whiteSpace=wrap;perimeter=rhombusPerimeter;fontSize=15;" parent="1" vertex="1">
          <mxGeometry x="620" y="260" width="100" height="90" as="geometry" />
        </mxCell>
        <mxCell id="RS9-Hoh7F00mR6cNcam1-11" value="True" style="text;html=1;strokeColor=none;fillColor=none;align=center;verticalAlign=middle;whiteSpace=wrap;rounded=0;fontFamily=Times New Roman;fontSize=15;" parent="1" vertex="1">
          <mxGeometry x="507.5" y="140" width="60" height="30" as="geometry" />
        </mxCell>
        <mxCell id="RS9-Hoh7F00mR6cNcam1-24" style="edgeStyle=orthogonalEdgeStyle;rounded=0;orthogonalLoop=1;jettySize=auto;html=1;entryX=1;entryY=0.5;entryDx=0;entryDy=0;jumpStyle=arc;fontSize=15;" parent="1" source="RS9-Hoh7F00mR6cNcam1-14" target="RS9-Hoh7F00mR6cNcam1-15" edge="1">
          <mxGeometry relative="1" as="geometry" />
        </mxCell>
        <mxCell id="RS9-Hoh7F00mR6cNcam1-14" value="Notify User of Event Rating and Evaluation" style="rounded=1;whiteSpace=wrap;html=1;fontFamily=Times New Roman;fontSize=15;" parent="1" vertex="1">
          <mxGeometry x="365" y="430" width="120" height="60" as="geometry" />
        </mxCell>
        <mxCell id="RS9-Hoh7F00mR6cNcam1-25" style="edgeStyle=orthogonalEdgeStyle;rounded=0;orthogonalLoop=1;jettySize=auto;html=1;entryX=0;entryY=0.5;entryDx=0;entryDy=0;fontSize=15;exitX=0.5;exitY=1;exitDx=0;exitDy=0;" parent="1" source="RS9-Hoh7F00mR6cNcam1-15" target="-6CZ8DDawfe_qWE3KK4i-1" edge="1">
          <mxGeometry relative="1" as="geometry">
            <Array as="points">
              <mxPoint x="150" y="580" />
            </Array>
            <mxPoint x="150" y="500" as="sourcePoint" />
            <mxPoint x="280" y="650" as="targetPoint" />
          </mxGeometry>
        </mxCell>
        <mxCell id="RS9-Hoh7F00mR6cNcam1-15" value="Answer Event Rating and Evaluation Form" style="rounded=1;whiteSpace=wrap;html=1;fontFamily=Times New Roman;fontSize=15;" parent="1" vertex="1">
          <mxGeometry x="90" y="430" width="120" height="60" as="geometry" />
        </mxCell>
        <mxCell id="RS9-Hoh7F00mR6cNcam1-26" value="True" style="text;html=1;strokeColor=none;fillColor=none;align=center;verticalAlign=middle;whiteSpace=wrap;rounded=0;fontFamily=Times New Roman;fontSize=15;" parent="1" vertex="1">
          <mxGeometry x="567.5" y="280" width="60" height="30" as="geometry" />
        </mxCell>
        <mxCell id="RS9-Hoh7F00mR6cNcam1-27" value="False" style="text;html=1;strokeColor=none;fillColor=none;align=center;verticalAlign=middle;whiteSpace=wrap;rounded=0;fontFamily=Times New Roman;fontSize=15;" parent="1" vertex="1">
          <mxGeometry x="670" y="410" width="60" height="30" as="geometry" />
        </mxCell>
        <mxCell id="-6CZ8DDawfe_qWE3KK4i-1" value="Display Event Rating and Evaluation on Community Moderator" style="rounded=1;whiteSpace=wrap;html=1;fontFamily=Times New Roman;fontSize=15;" parent="1" vertex="1">
          <mxGeometry x="365" y="530" width="120" height="100" as="geometry" />
        </mxCell>
        <mxCell id="-6CZ8DDawfe_qWE3KK4i-2" value="" style="edgeStyle=orthogonalEdgeStyle;rounded=0;orthogonalLoop=1;jettySize=auto;html=1;fontSize=15;entryX=0.5;entryY=0;entryDx=0;entryDy=0;exitX=0.5;exitY=1;exitDx=0;exitDy=0;" parent="1" source="RS9-Hoh7F00mR6cNcam1-1" target="HWKgetujE_o_d1HKFMaE-3" edge="1">
          <mxGeometry relative="1" as="geometry">
            <mxPoint x="220" y="180" as="sourcePoint" />
            <mxPoint x="385" y="180" as="targetPoint" />
          </mxGeometry>
        </mxCell>
        <mxCell id="-6CZ8DDawfe_qWE3KK4i-3" value="" style="edgeStyle=orthogonalEdgeStyle;rounded=0;orthogonalLoop=1;jettySize=auto;html=1;fontSize=15;entryX=0.5;entryY=0;entryDx=0;entryDy=0;exitX=0.5;exitY=1;exitDx=0;exitDy=0;" parent="1" source="RS9-Hoh7F00mR6cNcam1-5" target="RS9-Hoh7F00mR6cNcam1-6" edge="1">
          <mxGeometry relative="1" as="geometry">
            <mxPoint x="435" y="225" as="sourcePoint" />
            <mxPoint x="435" y="270" as="targetPoint" />
          </mxGeometry>
        </mxCell>
        <mxCell id="-6CZ8DDawfe_qWE3KK4i-4" value="" style="edgeStyle=orthogonalEdgeStyle;rounded=0;orthogonalLoop=1;jettySize=auto;html=1;fontSize=15;entryX=1;entryY=0.5;entryDx=0;entryDy=0;exitX=0;exitY=0.5;exitDx=0;exitDy=0;" parent="1" source="RS9-Hoh7F00mR6cNcam1-6" target="RS9-Hoh7F00mR6cNcam1-14" edge="1">
          <mxGeometry relative="1" as="geometry">
            <mxPoint x="680" y="200" as="sourcePoint" />
            <mxPoint x="680" y="270" as="targetPoint" />
            <Array as="points">
              <mxPoint x="570" y="305" />
              <mxPoint x="570" y="460" />
            </Array>
          </mxGeometry>
        </mxCell>
        <mxCell id="-6CZ8DDawfe_qWE3KK4i-5" value="" style="edgeStyle=orthogonalEdgeStyle;rounded=0;orthogonalLoop=1;jettySize=auto;html=1;fontSize=15;exitX=0.5;exitY=1;exitDx=0;exitDy=0;entryX=1;entryY=0.5;entryDx=0;entryDy=0;" parent="1" source="RS9-Hoh7F00mR6cNcam1-6" target="HWKgetujE_o_d1HKFMaE-5" edge="1">
          <mxGeometry relative="1" as="geometry">
            <mxPoint x="680" y="200" as="sourcePoint" />
            <mxPoint x="670" y="510" as="targetPoint" />
          </mxGeometry>
        </mxCell>
        <mxCell id="-6CZ8DDawfe_qWE3KK4i-6" style="edgeStyle=orthogonalEdgeStyle;rounded=0;orthogonalLoop=1;jettySize=auto;html=1;entryX=0.5;entryY=0;entryDx=0;entryDy=0;fontSize=15;exitX=0.5;exitY=1;exitDx=0;exitDy=0;" parent="1" source="-6CZ8DDawfe_qWE3KK4i-1" target="HWKgetujE_o_d1HKFMaE-5" edge="1">
          <mxGeometry relative="1" as="geometry">
            <Array as="points">
              <mxPoint x="425" y="660" />
              <mxPoint x="425" y="660" />
            </Array>
            <mxPoint x="160" y="500" as="sourcePoint" />
            <mxPoint x="375" y="590" as="targetPoint" />
          </mxGeometry>
        </mxCell>
        <mxCell id="-6CZ8DDawfe_qWE3KK4i-7" style="edgeStyle=orthogonalEdgeStyle;rounded=0;orthogonalLoop=1;jettySize=auto;html=1;entryX=0.5;entryY=0;entryDx=0;entryDy=0;jumpStyle=arc;fontSize=15;exitX=0.5;exitY=1;exitDx=0;exitDy=0;" parent="1" source="HWKgetujE_o_d1HKFMaE-3" target="RS9-Hoh7F00mR6cNcam1-14" edge="1">
          <mxGeometry relative="1" as="geometry">
            <mxPoint x="375" y="470" as="sourcePoint" />
            <mxPoint x="220" y="470" as="targetPoint" />
          </mxGeometry>
        </mxCell>
        <mxCell id="-6CZ8DDawfe_qWE3KK4i-8" style="edgeStyle=orthogonalEdgeStyle;rounded=0;orthogonalLoop=1;jettySize=auto;html=1;jumpStyle=arc;fontSize=15;exitX=1;exitY=0.5;exitDx=0;exitDy=0;entryX=1;entryY=0;entryDx=0;entryDy=0;" parent="1" source="HWKgetujE_o_d1HKFMaE-3" target="HWKgetujE_o_d1HKFMaE-5" edge="1">
          <mxGeometry relative="1" as="geometry">
            <mxPoint x="435" y="360" as="sourcePoint" />
            <mxPoint x="540" y="590" as="targetPoint" />
            <Array as="points">
              <mxPoint x="530" y="305" />
              <mxPoint x="530" y="694" />
            </Array>
          </mxGeometry>
        </mxCell>
      </root>
    </mxGraphModel>
  </diagram>
  <diagram id="_RhN-q47Z55GifcW7psZ" name="UserFeedback">
    <mxGraphModel dx="1242" dy="742" grid="1" gridSize="10" guides="1" tooltips="1" connect="1" arrows="1" fold="1" page="1" pageScale="1" pageWidth="850" pageHeight="1100" math="0" shadow="0">
      <root>
        <mxCell id="0" />
        <mxCell id="1" parent="0" />
        <mxCell id="4CxTPIFfsgMW1zSzK_rq-1" value="" style="edgeStyle=orthogonalEdgeStyle;rounded=0;orthogonalLoop=1;jettySize=auto;html=1;fontSize=15;" parent="1" source="4CxTPIFfsgMW1zSzK_rq-2" target="4CxTPIFfsgMW1zSzK_rq-3" edge="1">
          <mxGeometry relative="1" as="geometry" />
        </mxCell>
        <mxCell id="4CxTPIFfsgMW1zSzK_rq-2" value="" style="ellipse;fillColor=strokeColor;html=1;fontSize=15;" parent="1" vertex="1">
          <mxGeometry x="135" y="80" width="30" height="30" as="geometry" />
        </mxCell>
        <mxCell id="oZ8BfyA3kyQSEBwaPevU-4" style="edgeStyle=orthogonalEdgeStyle;rounded=0;orthogonalLoop=1;jettySize=auto;html=1;exitX=0.5;exitY=1;exitDx=0;exitDy=0;entryX=0.5;entryY=0;entryDx=0;entryDy=0;" parent="1" source="4CxTPIFfsgMW1zSzK_rq-3" target="4CxTPIFfsgMW1zSzK_rq-7" edge="1">
          <mxGeometry relative="1" as="geometry" />
        </mxCell>
        <mxCell id="4CxTPIFfsgMW1zSzK_rq-3" value="Click Report Button" style="rounded=1;whiteSpace=wrap;html=1;fontFamily=Times New Roman;fontSize=15;" parent="1" vertex="1">
          <mxGeometry x="90" y="150" width="120" height="40" as="geometry" />
        </mxCell>
        <mxCell id="oZ8BfyA3kyQSEBwaPevU-10" style="edgeStyle=orthogonalEdgeStyle;rounded=0;orthogonalLoop=1;jettySize=auto;html=1;exitX=0;exitY=0.5;exitDx=0;exitDy=0;entryX=1;entryY=0.5;entryDx=0;entryDy=0;" parent="1" source="4CxTPIFfsgMW1zSzK_rq-4" target="oZ8BfyA3kyQSEBwaPevU-2" edge="1">
          <mxGeometry relative="1" as="geometry" />
        </mxCell>
        <mxCell id="oZ8BfyA3kyQSEBwaPevU-16" style="edgeStyle=orthogonalEdgeStyle;rounded=0;orthogonalLoop=1;jettySize=auto;html=1;exitX=0.5;exitY=1;exitDx=0;exitDy=0;entryX=1;entryY=0.5;entryDx=0;entryDy=0;" parent="1" source="4CxTPIFfsgMW1zSzK_rq-4" target="oZ8BfyA3kyQSEBwaPevU-13" edge="1">
          <mxGeometry relative="1" as="geometry" />
        </mxCell>
        <mxCell id="4CxTPIFfsgMW1zSzK_rq-4" value="&lt;font face=&quot;Times New Roman&quot; style=&quot;font-size: 15px;&quot;&gt;Respond to reports?&lt;/font&gt;" style="shape=rhombus;html=1;dashed=0;whiteSpace=wrap;perimeter=rhombusPerimeter;fontSize=15;" parent="1" vertex="1">
          <mxGeometry x="610" y="340" width="100" height="90" as="geometry" />
        </mxCell>
        <mxCell id="4CxTPIFfsgMW1zSzK_rq-5" value="" style="ellipse;html=1;shape=endState;fillColor=strokeColor;fontSize=15;" parent="1" vertex="1">
          <mxGeometry x="400" y="700" width="30" height="30" as="geometry" />
        </mxCell>
        <mxCell id="oZ8BfyA3kyQSEBwaPevU-5" style="edgeStyle=orthogonalEdgeStyle;rounded=0;orthogonalLoop=1;jettySize=auto;html=1;exitX=0.5;exitY=1;exitDx=0;exitDy=0;" parent="1" source="4CxTPIFfsgMW1zSzK_rq-7" target="4CxTPIFfsgMW1zSzK_rq-8" edge="1">
          <mxGeometry relative="1" as="geometry" />
        </mxCell>
        <mxCell id="4CxTPIFfsgMW1zSzK_rq-7" value="Select Reason for Reporting Community" style="rounded=1;whiteSpace=wrap;html=1;fontFamily=Times New Roman;fontSize=15;" parent="1" vertex="1">
          <mxGeometry x="90" y="210" width="120" height="50" as="geometry" />
        </mxCell>
        <mxCell id="oZ8BfyA3kyQSEBwaPevU-6" style="edgeStyle=orthogonalEdgeStyle;rounded=0;orthogonalLoop=1;jettySize=auto;html=1;exitX=1;exitY=0.5;exitDx=0;exitDy=0;entryX=0;entryY=0.5;entryDx=0;entryDy=0;" parent="1" source="4CxTPIFfsgMW1zSzK_rq-8" target="HAEucOgFQ7MEfa0F2hZT-1" edge="1">
          <mxGeometry relative="1" as="geometry">
            <mxPoint x="270" y="300" as="targetPoint" />
          </mxGeometry>
        </mxCell>
        <mxCell id="4CxTPIFfsgMW1zSzK_rq-8" value="Submit Report" style="rounded=1;whiteSpace=wrap;html=1;fontFamily=Times New Roman;fontSize=15;" parent="1" vertex="1">
          <mxGeometry x="90" y="280" width="120" height="40" as="geometry" />
        </mxCell>
        <mxCell id="oZ8BfyA3kyQSEBwaPevU-8" style="edgeStyle=orthogonalEdgeStyle;rounded=0;orthogonalLoop=1;jettySize=auto;html=1;exitX=1;exitY=0.5;exitDx=0;exitDy=0;entryX=0;entryY=0.5;entryDx=0;entryDy=0;" parent="1" source="HAEucOgFQ7MEfa0F2hZT-1" target="HAEucOgFQ7MEfa0F2hZT-2" edge="1">
          <mxGeometry relative="1" as="geometry" />
        </mxCell>
        <mxCell id="HAEucOgFQ7MEfa0F2hZT-1" value="Display Reports to Authorizer" style="rounded=1;whiteSpace=wrap;html=1;fontFamily=Times New Roman;fontSize=15;" parent="1" vertex="1">
          <mxGeometry x="355" y="280" width="120" height="40" as="geometry" />
        </mxCell>
        <mxCell id="oZ8BfyA3kyQSEBwaPevU-9" style="edgeStyle=orthogonalEdgeStyle;rounded=0;orthogonalLoop=1;jettySize=auto;html=1;exitX=0.5;exitY=1;exitDx=0;exitDy=0;entryX=0.5;entryY=0;entryDx=0;entryDy=0;" parent="1" source="HAEucOgFQ7MEfa0F2hZT-2" target="4CxTPIFfsgMW1zSzK_rq-4" edge="1">
          <mxGeometry relative="1" as="geometry" />
        </mxCell>
        <mxCell id="HAEucOgFQ7MEfa0F2hZT-2" value="Audit Reports" style="rounded=1;whiteSpace=wrap;html=1;fontFamily=Times New Roman;fontSize=15;" parent="1" vertex="1">
          <mxGeometry x="600" y="280" width="120" height="40" as="geometry" />
        </mxCell>
        <mxCell id="F1sn5w4f9KL6IWofm3OX-3" style="edgeStyle=orthogonalEdgeStyle;rounded=0;orthogonalLoop=1;jettySize=auto;html=1;exitX=0.5;exitY=1;exitDx=0;exitDy=0;entryX=0.25;entryY=0;entryDx=0;entryDy=0;" parent="1" source="oZ8BfyA3kyQSEBwaPevU-1" target="oZ8BfyA3kyQSEBwaPevU-15" edge="1">
          <mxGeometry relative="1" as="geometry">
            <mxPoint x="420.78" y="588.165" as="targetPoint" />
            <Array as="points">
              <mxPoint x="350" y="560" />
              <mxPoint x="385" y="560" />
            </Array>
          </mxGeometry>
        </mxCell>
        <mxCell id="oZ8BfyA3kyQSEBwaPevU-1" value="Notify Community Creator" style="rounded=1;whiteSpace=wrap;html=1;fontFamily=Times New Roman;fontSize=15;" parent="1" vertex="1">
          <mxGeometry x="290" y="480" width="120" height="40" as="geometry" />
        </mxCell>
        <mxCell id="oZ8BfyA3kyQSEBwaPevU-14" style="edgeStyle=orthogonalEdgeStyle;rounded=0;orthogonalLoop=1;jettySize=auto;html=1;exitX=0.5;exitY=1;exitDx=0;exitDy=0;entryX=0.5;entryY=0;entryDx=0;entryDy=0;" parent="1" source="oZ8BfyA3kyQSEBwaPevU-2" target="oZ8BfyA3kyQSEBwaPevU-1" edge="1">
          <mxGeometry relative="1" as="geometry" />
        </mxCell>
        <mxCell id="oZ8BfyA3kyQSEBwaPevU-2" value="Display Suspended Community Message on Community Page" style="rounded=1;whiteSpace=wrap;html=1;fontFamily=Times New Roman;fontSize=15;" parent="1" vertex="1">
          <mxGeometry x="355" y="345" width="120" height="80" as="geometry" />
        </mxCell>
        <mxCell id="F1sn5w4f9KL6IWofm3OX-4" style="edgeStyle=orthogonalEdgeStyle;rounded=0;orthogonalLoop=1;jettySize=auto;html=1;exitX=0.5;exitY=1;exitDx=0;exitDy=0;entryX=0.75;entryY=0;entryDx=0;entryDy=0;" parent="1" source="oZ8BfyA3kyQSEBwaPevU-13" target="oZ8BfyA3kyQSEBwaPevU-15" edge="1">
          <mxGeometry relative="1" as="geometry">
            <mxPoint x="498.29999999999995" y="587.335" as="targetPoint" />
          </mxGeometry>
        </mxCell>
        <mxCell id="oZ8BfyA3kyQSEBwaPevU-13" value="Clear Reports from Authorizer Interface" style="rounded=1;whiteSpace=wrap;html=1;fontFamily=Times New Roman;fontSize=15;" parent="1" vertex="1">
          <mxGeometry x="425" y="470" width="120" height="60" as="geometry" />
        </mxCell>
        <mxCell id="oZ8BfyA3kyQSEBwaPevU-15" value="Notify Users who Reported the Community of the Decision" style="rounded=1;whiteSpace=wrap;html=1;fontFamily=Times New Roman;fontSize=15;" parent="1" vertex="1">
          <mxGeometry x="355" y="590" width="120" height="70" as="geometry" />
        </mxCell>
        <mxCell id="gTmxthEdyoj98o_JOHzo-1" value="Suspend" style="text;html=1;strokeColor=none;fillColor=none;align=center;verticalAlign=middle;whiteSpace=wrap;rounded=0;fontFamily=Times New Roman;fontSize=14;" parent="1" vertex="1">
          <mxGeometry x="520" y="360" width="60" height="30" as="geometry" />
        </mxCell>
        <mxCell id="gTmxthEdyoj98o_JOHzo-2" value="Clear" style="text;html=1;strokeColor=none;fillColor=none;align=center;verticalAlign=middle;whiteSpace=wrap;rounded=0;fontFamily=Times New Roman;fontSize=14;" parent="1" vertex="1">
          <mxGeometry x="590" y="470" width="60" height="30" as="geometry" />
        </mxCell>
        <mxCell id="rna9rC3zx2bx8mw9XaVf-1" style="edgeStyle=orthogonalEdgeStyle;rounded=0;orthogonalLoop=1;jettySize=auto;html=1;exitX=0.5;exitY=1;exitDx=0;exitDy=0;entryX=0.5;entryY=0;entryDx=0;entryDy=0;" parent="1" source="oZ8BfyA3kyQSEBwaPevU-15" target="4CxTPIFfsgMW1zSzK_rq-5" edge="1">
          <mxGeometry relative="1" as="geometry">
            <mxPoint x="300" y="510" as="sourcePoint" />
            <mxPoint x="395" y="600" as="targetPoint" />
          </mxGeometry>
        </mxCell>
      </root>
    </mxGraphModel>
  </diagram>
  <diagram id="XP-uRyyNG02zFFhjMFst" name="ModeratorRequest">
    <mxGraphModel dx="1242" dy="742" grid="1" gridSize="10" guides="1" tooltips="1" connect="1" arrows="1" fold="1" page="1" pageScale="1" pageWidth="850" pageHeight="1100" math="0" shadow="0">
      <root>
        <mxCell id="0" />
        <mxCell id="1" parent="0" />
        <mxCell id="5rVyze1nZJNqpi0B-p0O-15" style="edgeStyle=orthogonalEdgeStyle;rounded=0;orthogonalLoop=1;jettySize=auto;html=1;fontSize=16;" parent="1" source="5rVyze1nZJNqpi0B-p0O-1" target="5rVyze1nZJNqpi0B-p0O-2" edge="1">
          <mxGeometry relative="1" as="geometry" />
        </mxCell>
        <mxCell id="5rVyze1nZJNqpi0B-p0O-1" value="" style="ellipse;fillColor=strokeColor;html=1;fontSize=16;" parent="1" vertex="1">
          <mxGeometry x="135" y="80" width="30" height="30" as="geometry" />
        </mxCell>
        <mxCell id="5rVyze1nZJNqpi0B-p0O-16" style="edgeStyle=orthogonalEdgeStyle;rounded=0;orthogonalLoop=1;jettySize=auto;html=1;fontSize=16;" parent="1" source="5rVyze1nZJNqpi0B-p0O-2" target="5rVyze1nZJNqpi0B-p0O-7" edge="1">
          <mxGeometry relative="1" as="geometry" />
        </mxCell>
        <mxCell id="5rVyze1nZJNqpi0B-p0O-2" value="View Members" style="rounded=0;whiteSpace=wrap;html=1;fontFamily=Times New Roman;fontSize=16;" parent="1" vertex="1">
          <mxGeometry x="90" y="150" width="120" height="40" as="geometry" />
        </mxCell>
        <mxCell id="5rVyze1nZJNqpi0B-p0O-21" style="edgeStyle=orthogonalEdgeStyle;rounded=0;orthogonalLoop=1;jettySize=auto;html=1;entryX=1;entryY=0.5;entryDx=0;entryDy=0;fontSize=16;" parent="1" source="5rVyze1nZJNqpi0B-p0O-3" target="5rVyze1nZJNqpi0B-p0O-13" edge="1">
          <mxGeometry relative="1" as="geometry" />
        </mxCell>
        <mxCell id="5rVyze1nZJNqpi0B-p0O-22" style="edgeStyle=orthogonalEdgeStyle;rounded=0;orthogonalLoop=1;jettySize=auto;html=1;fontSize=16;" parent="1" source="5rVyze1nZJNqpi0B-p0O-3" target="5rVyze1nZJNqpi0B-p0O-14" edge="1">
          <mxGeometry relative="1" as="geometry">
            <Array as="points">
              <mxPoint x="800" y="400" />
            </Array>
          </mxGeometry>
        </mxCell>
        <mxCell id="5rVyze1nZJNqpi0B-p0O-3" value="&lt;font face=&quot;Times New Roman&quot; style=&quot;font-size: 16px;&quot;&gt;Moderator&lt;br style=&quot;font-size: 16px;&quot;&gt;Request&lt;br style=&quot;font-size: 16px;&quot;&gt;Response&lt;/font&gt;" style="shape=rhombus;html=1;dashed=0;whiteSpace=wrap;perimeter=rhombusPerimeter;fontSize=16;" parent="1" vertex="1">
          <mxGeometry x="720" y="290" width="160" height="90" as="geometry" />
        </mxCell>
        <mxCell id="5rVyze1nZJNqpi0B-p0O-29" style="edgeStyle=orthogonalEdgeStyle;rounded=0;orthogonalLoop=1;jettySize=auto;html=1;entryX=0;entryY=0.5;entryDx=0;entryDy=0;fontSize=16;" parent="1" source="5rVyze1nZJNqpi0B-p0O-4" target="5rVyze1nZJNqpi0B-p0O-23" edge="1">
          <mxGeometry relative="1" as="geometry">
            <Array as="points">
              <mxPoint x="260" y="368" />
              <mxPoint x="260" y="465" />
            </Array>
          </mxGeometry>
        </mxCell>
        <mxCell id="5rVyze1nZJNqpi0B-p0O-4" value="" style="html=1;points=[];perimeter=orthogonalPerimeter;fillColor=strokeColor;fontSize=16;" parent="1" vertex="1">
          <mxGeometry x="280" y="315" width="5" height="105" as="geometry" />
        </mxCell>
        <mxCell id="5rVyze1nZJNqpi0B-p0O-5" value="" style="ellipse;html=1;shape=endState;fillColor=strokeColor;fontSize=16;" parent="1" vertex="1">
          <mxGeometry x="577.5" y="525" width="30" height="30" as="geometry" />
        </mxCell>
        <mxCell id="5rVyze1nZJNqpi0B-p0O-6" value="Decline" style="text;html=1;strokeColor=none;fillColor=none;align=center;verticalAlign=middle;whiteSpace=wrap;rounded=0;fontFamily=Times New Roman;fontSize=16;" parent="1" vertex="1">
          <mxGeometry x="562.5" y="310" width="60" height="30" as="geometry" />
        </mxCell>
        <mxCell id="5rVyze1nZJNqpi0B-p0O-17" style="edgeStyle=orthogonalEdgeStyle;rounded=0;orthogonalLoop=1;jettySize=auto;html=1;fontSize=16;exitX=1;exitY=0.75;exitDx=0;exitDy=0;" parent="1" source="3Mj58Ekjmk62Y4NpwQ_i-4" target="5rVyze1nZJNqpi0B-p0O-9" edge="1">
          <mxGeometry relative="1" as="geometry">
            <Array as="points">
              <mxPoint x="240" y="378" />
              <mxPoint x="240" y="240" />
            </Array>
          </mxGeometry>
        </mxCell>
        <mxCell id="3Mj58Ekjmk62Y4NpwQ_i-5" style="edgeStyle=orthogonalEdgeStyle;rounded=0;orthogonalLoop=1;jettySize=auto;html=1;exitX=0.5;exitY=1;exitDx=0;exitDy=0;entryX=0.5;entryY=0;entryDx=0;entryDy=0;" parent="1" source="5rVyze1nZJNqpi0B-p0O-7" target="3Mj58Ekjmk62Y4NpwQ_i-1" edge="1">
          <mxGeometry relative="1" as="geometry" />
        </mxCell>
        <mxCell id="5rVyze1nZJNqpi0B-p0O-7" value="Click Access Privileges Page" style="rounded=0;whiteSpace=wrap;html=1;fontFamily=Times New Roman;fontSize=16;" parent="1" vertex="1">
          <mxGeometry x="90" y="212" width="120" height="40" as="geometry" />
        </mxCell>
        <mxCell id="5rVyze1nZJNqpi0B-p0O-18" style="edgeStyle=orthogonalEdgeStyle;rounded=0;orthogonalLoop=1;jettySize=auto;html=1;fontSize=16;" parent="1" source="5rVyze1nZJNqpi0B-p0O-9" target="5rVyze1nZJNqpi0B-p0O-10" edge="1">
          <mxGeometry relative="1" as="geometry" />
        </mxCell>
        <mxCell id="5rVyze1nZJNqpi0B-p0O-9" value="Update Member Status to Moderator - Pending" style="rounded=0;whiteSpace=wrap;html=1;fontFamily=Times New Roman;fontSize=16;" parent="1" vertex="1">
          <mxGeometry x="320" y="195" width="120" height="90" as="geometry" />
        </mxCell>
        <mxCell id="5rVyze1nZJNqpi0B-p0O-19" style="edgeStyle=orthogonalEdgeStyle;rounded=0;orthogonalLoop=1;jettySize=auto;html=1;entryX=0;entryY=0.5;entryDx=0;entryDy=0;fontSize=16;" parent="1" source="5rVyze1nZJNqpi0B-p0O-10" target="5rVyze1nZJNqpi0B-p0O-11" edge="1">
          <mxGeometry relative="1" as="geometry" />
        </mxCell>
        <mxCell id="5rVyze1nZJNqpi0B-p0O-10" value="Notify User of Moderator Request" style="rounded=0;whiteSpace=wrap;html=1;fontFamily=Times New Roman;fontSize=16;" parent="1" vertex="1">
          <mxGeometry x="532.5" y="210" width="120" height="60" as="geometry" />
        </mxCell>
        <mxCell id="5rVyze1nZJNqpi0B-p0O-20" style="edgeStyle=orthogonalEdgeStyle;rounded=0;orthogonalLoop=1;jettySize=auto;html=1;entryX=0.5;entryY=0;entryDx=0;entryDy=0;fontSize=16;" parent="1" source="5rVyze1nZJNqpi0B-p0O-11" target="5rVyze1nZJNqpi0B-p0O-3" edge="1">
          <mxGeometry relative="1" as="geometry" />
        </mxCell>
        <mxCell id="5rVyze1nZJNqpi0B-p0O-11" value="Respond to Request" style="rounded=0;whiteSpace=wrap;html=1;fontFamily=Times New Roman;fontSize=16;" parent="1" vertex="1">
          <mxGeometry x="740" y="220" width="120" height="40" as="geometry" />
        </mxCell>
        <mxCell id="5rVyze1nZJNqpi0B-p0O-27" style="edgeStyle=orthogonalEdgeStyle;rounded=0;orthogonalLoop=1;jettySize=auto;html=1;entryX=1.4;entryY=0.19;entryDx=0;entryDy=0;entryPerimeter=0;fontSize=16;" parent="1" source="5rVyze1nZJNqpi0B-p0O-13" target="5rVyze1nZJNqpi0B-p0O-4" edge="1">
          <mxGeometry relative="1" as="geometry" />
        </mxCell>
        <mxCell id="5rVyze1nZJNqpi0B-p0O-13" value="Update Member Status to Member" style="rounded=0;whiteSpace=wrap;html=1;fontFamily=Times New Roman;fontSize=16;" parent="1" vertex="1">
          <mxGeometry x="320" y="315" width="120" height="40" as="geometry" />
        </mxCell>
        <mxCell id="5rVyze1nZJNqpi0B-p0O-28" style="edgeStyle=orthogonalEdgeStyle;rounded=0;orthogonalLoop=1;jettySize=auto;html=1;entryX=1;entryY=0.81;entryDx=0;entryDy=0;entryPerimeter=0;fontSize=16;" parent="1" source="5rVyze1nZJNqpi0B-p0O-14" target="5rVyze1nZJNqpi0B-p0O-4" edge="1">
          <mxGeometry relative="1" as="geometry" />
        </mxCell>
        <mxCell id="5rVyze1nZJNqpi0B-p0O-14" value="Update Member Status to Moderator" style="rounded=0;whiteSpace=wrap;html=1;fontFamily=Times New Roman;fontSize=16;" parent="1" vertex="1">
          <mxGeometry x="320" y="370" width="120" height="60" as="geometry" />
        </mxCell>
        <mxCell id="5rVyze1nZJNqpi0B-p0O-30" style="edgeStyle=orthogonalEdgeStyle;rounded=0;orthogonalLoop=1;jettySize=auto;html=1;entryX=0.5;entryY=0;entryDx=0;entryDy=0;fontSize=16;" parent="1" source="5rVyze1nZJNqpi0B-p0O-23" target="5rVyze1nZJNqpi0B-p0O-5" edge="1">
          <mxGeometry relative="1" as="geometry" />
        </mxCell>
        <mxCell id="5rVyze1nZJNqpi0B-p0O-23" value="Notify Community Creator of User Decision" style="rounded=0;whiteSpace=wrap;html=1;fontFamily=Times New Roman;fontSize=16;" parent="1" vertex="1">
          <mxGeometry x="532.5" y="425" width="120" height="79" as="geometry" />
        </mxCell>
        <mxCell id="5rVyze1nZJNqpi0B-p0O-24" value="Accept" style="text;html=1;strokeColor=none;fillColor=none;align=center;verticalAlign=middle;whiteSpace=wrap;rounded=0;fontFamily=Times New Roman;fontSize=16;" parent="1" vertex="1">
          <mxGeometry x="562.5" y="374" width="60" height="30" as="geometry" />
        </mxCell>
        <mxCell id="3Mj58Ekjmk62Y4NpwQ_i-6" style="edgeStyle=orthogonalEdgeStyle;rounded=0;orthogonalLoop=1;jettySize=auto;html=1;exitX=0.5;exitY=1;exitDx=0;exitDy=0;entryX=0.5;entryY=0;entryDx=0;entryDy=0;" parent="1" source="3Mj58Ekjmk62Y4NpwQ_i-1" target="3Mj58Ekjmk62Y4NpwQ_i-4" edge="1">
          <mxGeometry relative="1" as="geometry" />
        </mxCell>
        <mxCell id="3Mj58Ekjmk62Y4NpwQ_i-1" value="Select Member and Choose Access Privileges" style="rounded=0;whiteSpace=wrap;html=1;fontFamily=Times New Roman;fontSize=16;" parent="1" vertex="1">
          <mxGeometry x="90" y="275" width="120" height="55" as="geometry" />
        </mxCell>
        <mxCell id="3Mj58Ekjmk62Y4NpwQ_i-4" value="Submit" style="rounded=0;whiteSpace=wrap;html=1;fontFamily=Times New Roman;fontSize=16;" parent="1" vertex="1">
          <mxGeometry x="90" y="347.5" width="120" height="40" as="geometry" />
        </mxCell>
      </root>
    </mxGraphModel>
  </diagram>
</mxfile>
